<mxfile host="app.diagrams.net" agent="Mozilla/5.0 (Windows NT 10.0; Win64; x64) AppleWebKit/537.36 (KHTML, like Gecko) Chrome/139.0.0.0 Safari/537.36" version="28.1.2" pages="4">
  <diagram id="0Kt_DQbsAmWdPuWwMn8I" name="Page-4">
    <mxGraphModel dx="1042" dy="510" grid="1" gridSize="10" guides="1" tooltips="1" connect="1" arrows="1" fold="1" page="1" pageScale="1" pageWidth="827" pageHeight="1169" math="0" shadow="0" adaptiveColors="auto">
      <root>
        <mxCell id="0" />
        <mxCell id="1" parent="0" />
        <mxCell id="tKPjn2sMKfOxzuckoDCL-1" value="&lt;img src=&quot;data:image/png;base64,iVBORw0KGgoAAAANSUhEUgAAAEoAAABKCAYAAAAc0MJxAAAKU0lEQVR4AexaC3BU5RU+524CpCqgZHcjpQ/7sFaraKstKmN9FWeMjoUW++BRkuwyBZypVIdRILv/bki0akWmpUr2JqCo1algtUC1agsztKXVwQZqX/ShI2B2FwrhIZJs7t/v7G6cJOwmd3fvhlD3zjn3/I9zz/3/7/7/uf/LoNJlC4ESULZgIioBVQLKJgI21UotqgSUTQRsqpVaVAkomwjYVCu1qBJQNhGwqVZqUSWgbCJgU63Uoj4IQC1c+HZF0Bf7sfJHrx+8voVpnNItavThESaqv0BrngdZVDplgQr4YguI+NtE9K5lWAqyqHRKAhX0tU9CwZenkNGzGpqrdqbCxbvjfcUznslyoC5ereqid9bXxS7JlD9Y2t0177ixOrROE5VD96GQ6V0PWXQyiv6GXi+A432UWW/QzPcbTNtVXay2V7at4AiX6xkojgcTaTqifFGl/LGlQV90Zv3c9i8FZ+wfncxz+DZkQCl//CaUfTYYFdTPi9RMK1MtRGKDM1rjzdC6CpwipqWaOKg1NRDxWsMytlFFd4fyxbbjoyxe6ms/hxy6hgworfWkdJkbQy3eW0jTVsRHlbuMiyFtUeeI8q147k1RZqIokw4JE+swEz+M9PVMtFMTSbdudJHxbwEM6QWTUbAFmwaY6Z8pVT1L+WNNxDRZ4kaZtUukHb734bEHLK2/Ct1jmshLZOxVpleFIt6gMt3zQ6bna8r0XMQGfwE6MnSAoEa0sFYJFMJFBUrVdZwlXxQF3YHusTpVUP4ownenwuiFCdd/4F9eCdTFvtOTNpBsaPW2AaQa0dGkVwXxB5Rwb1bN7u0AzY+0avAR0Q/6Yz9COG8qGlDSajQf342SNaKgF0J2oBX9ClK+dBMzr2Wi3yIO4muZaQ1A3Rvwx2cgYUAKm56nmfj+lJLxiyXf3ffhVLjvHWBtwhjrCqQeRpe9DfZvRDgvchwoNXfvh/D1Xky3mgpi/jlZfBkKPTYU8dwA6QcvURH3bHSTyZw4WoGSVxNTG+TZrPXjAV88iPCApEz3IiJ+mYgqyxLdCyEzkoyxWNPtlLoeVXNiValgbnfHgdJW2UZ8vSkMZ6stvjYUcU8Ntbpfy1Ysteac90KmZ1Mo4rlYMyUrBAet8PWX0SAXJ8qmoyXWE5U9NJCqavGIj3oROpVUrqdB5kxGzk8M8IDyxX+C7KuJqa2T9MRwq/s3iNumcMSzwmLji3jgKHgJuu+tkFlJrTnzoIp4loXMcdLFs+pJRpfBNfBpi1TEK2WUpJzYMaCCvug0FGQeQDqUsBK3NJneaE4lSSs3RCpfRTAJELov/Nb+CYgnqZBbU7P7nbDpTfu13C05BhQTPyCv1xb5GlvGvyXhfFm6IrqvfHn4L+uefO04+ZwjQOHXPh1/NhkFbwu3eH7mRAGZRtZL64S/mrF4bvxsJ2wWYsMo5OGeZw2DpkuYmVeIdIJVy5j/kuYn8QF4hLamOmGzEBsFA7UQq4zwJTKP6z7Grl8WUpj+z8LuplQafz0lT969YKBOPzTyPBQfvoTe/EHzWR0IO0bMxutiDIBdIvJkcl5A1ddGJ2Kc80KwLvYPLJc8lq6AV/lim51k0t0/TdseG/RH34DtP4LXF2spJf2ujCIvoNggmRbcQEyfhtXPgYVOhz/5spMM+8mJsxiHvzofti8DT7VO6/pYMm0Ib3kBhfEIljSsyzE1WJcu62YMD64pBhMZ1+EdB8CkiRVhICvTEokPJecFlBQwZFZtS5RRzyoARuP6oDLdm51m1tb5eN+ZRPxW2HSHQqZ3B52EK2+gpKzLVnl2cWrBDB+aXhDfJelOsUxhNFNyeYSZ7nLKbj52CgJKXqhM93zCLF5jIc0w+E/i4OFwnXDq+/C3e5pwYdDZoCLupxC0TZhSXWRb2YZiwUDJO45ZJDPyVJeAgwdoTjj1cWKbiVYr0xuQsF0O+GJY2OM2SOz92X1qYD1HgLqv1X04ZHomJsqMCVgom8TEBTt2S9Pn2Ui4lempHbgKGXI1JdecmMixqY8jQPUUtfGRyj34I/1BZXXq9p19Q4vnddU8fl+PbTtSVjrh15Yys/wpMbqgyQHsI945q/00O88PpOMoUAO9qNh5AKipLGHthl/D1pVOAiUugLGPeNpIYw8GyHkvA0vZ/y+ACtZFfwiAUkMVTU9p0vPBU9Cy7kD3ewkVHQPeGKiLpXQQyZVOeaBUbfQTxPx9VDzOhvHZUIvnWzIgBr+EP+WD8HFT0LJuQz7U6IMLlDZS+4MA4jnVXPk3yBMobHpWygYHxmTfOCHTZsIp36J66oku5uoJZ5KywRGOePJeBioqUPVz2y8s9ky/26Dk3iC6V7WTZw36g100oBZiQc+wjB00qrvtrnkHMVfr/+q+cVUX9wmwfVMHjy1r9v4Lk/MV0PS4yHgDe4otyhefG6iNX6PqYp9CuiNkOGIlg5Hlyz9yDN1hCzF9fFSic20GlfeTgrXxSzXriKGNrcofP/f9DJsB7NvdTppkH7ACshZ/vFVs6F/DJ+3CsECDI4WuuxcNKKljV7drFuRB/LqrlT+KOSFiGUj8B5KfQSVHk9bPL6qNn4F4ToS/Xb3MDJi0jKOekI8E3pM24iu39F/zabHp56moQDWuHvc2WkpyCqI1rwz44vU9L+4vD51xfDYqJkd2PlNh6Cf759uJy8xAYV4YMr0zlem5GjyBE4RtepKuOQau4JV8PoK8u6hAyQvCEe+zmnmmhPG1w+gGrwYyHMSQrtqlE3JQTBbpbgKoQXmmUFZrPO3Jrkm0Abbco1yWrM4imBsVHSgpTjjifkLGMQjvBV/KWj8OwOLgjcoXa4VslCOG5eyqISbZKYbQCv5KdnfwSOHETDvFimGRnKyRYE48JEBJicQPHT1unYu51wJ0sb8jrRJ8I37rNZCLtRwxBMNPTUE8SVpb30wGBrkB6HXKH9ug5hwYm01Va0qu7VtGCrBsetnScwYqmyE76Q+srToqhyTgO86zLH0FCn8rsZ6HZ5egW6aPGVIb4kLvcndZkwQGYwB/AWxV67Ku1zAkuKq3Pv6o45Emp12kW8fe6zZ+1zvfbnhIgepdqIZW7+/D2H4PRbyPhExPkzK9Shv8MlrURNHDT2C2Wj3uLxIejDW5roeOTF8+qZm2YCzVgS69FbybDL0Had9Dfgdr67r7sHaGcM500oDqX1I1J1bFFsnRaMIQ4UH8BHp2ePqrnhAPmeN2sx55JTLEYR8B2KM10ZXg1Ek8TWswdLhAtVT9GTp50bABispoPSrmRTfaEmrx3pFrbeSsAlrmzWAZgy1JP38v4hxq8dTI0CGdlpcYFkAFk2er6HLUoJ2MRMHnDNDVumGL4P86yaFrWADV2dm1BS3pWfiQr+S6/JsJB4ON58QeuqDt7pvJTu+0YQHUPY9N2K9Mz7RCfEjvSsm6lNgLObhZOiyA6l3J4RouAWXzy5SAKgFlEwGbaqUWVQLKJgI21UotKjtQfXJKQPWBI3ukBFR2bPrklIDqA0f2SAmo7Nj0ySkB1QeO7JH/AQAA///pzzVhAAAABklEQVQDAEbYTtEUqYjOAAAAAElFTkSuQmCC&quot; crossorigin=&quot;anonymous&quot;&gt;" style="text;whiteSpace=wrap;html=1;labelBackgroundColor=none;fontColor=#5C5C5C;rounded=1;sketch=1;curveFitting=1;jiggle=2;" vertex="1" parent="1">
          <mxGeometry x="462" y="150" width="166" height="170" as="geometry" />
        </mxCell>
        <mxCell id="tKPjn2sMKfOxzuckoDCL-5" value="&lt;font style=&quot;font-size: 31px;&quot;&gt;Zomato Life Cycle&lt;/font&gt;" style="text;html=1;align=center;verticalAlign=middle;resizable=0;points=[];autosize=1;strokeColor=none;fillColor=none;labelBackgroundColor=none;fontColor=#5C5C5C;rounded=1;sketch=1;curveFitting=1;jiggle=2;" vertex="1" parent="1">
          <mxGeometry x="295" y="40" width="270" height="50" as="geometry" />
        </mxCell>
        <mxCell id="tKPjn2sMKfOxzuckoDCL-7" value="&lt;img src=&quot;data:image/png;base64,iVBORw0KGgoAAAANSUhEUgAAAEoAAABKCAYAAAAc0MJxAAAGyUlEQVR4AeyaTWwTRxTH560T4IRaqUJwaFVUTi39BFpsCiRxSOHYAwguHODWEPNNb4Uey4egDqnEAS4cqEDqoWoLJLFdoLIDpVJbFYkikFCRaEUlQFygjb2P959dE0xiM7v2ruNorX07b2bevJn5eXZ2Z3YtFf2MCESgjDApFYGKQBkSMDSLRlQEypCAoVk0oiJQhgQMzaIRFYEyJGBoFo2oCJQhAUOzaEQFCSqdjefSmThXkZMHhxZ3GNYfoll9VQUxolbHYrS7vmZNvtK+QKW6Cp2pZIGelZLFc5XibxWrjv5MfPXk667/FvkCVa26rZ0jN5mtE8i3lYojnCrSUFCAQqR+RiiOFyOcKiL9aWxXUsn8DfF4lWVEHcl1vCT6lDgaDsqhwiMI/ys+WoZwKkggoGy29OXHFn04FSChD4GAEscalDifMvOU9EW61eBjS3ceoB5inkr/sGp6g903xV0goJyeOPOUmnZvqRNv7XNgoIhJT+jKoghUzTFiuSOK1WdV1oTV1opBpN+TlcI3A7lFs2u2uUZmcCPKbrtao96ws16Q+fLjkt3+nd+KAwO1qfuna7Lmu6wbVlIdqQnWhl7T/Noz2QulHfdlHbrA785GYKCkYYpJaVDcphKIN0s2d138Req+LaJi09uvIPQqwYJiBxTZaonXhjXSPp19/23x97pSdC217MK/yscvUFBWsaRHlLKaO6KYY2vBhhV/j9CPBAoqtfLSb9KoG4rVi/1D8TdFb8pBSmlQlqLJN5mPEaEL0OXfbMq6L51bgmXUq/Jn3e5L5rNoix+x/BTyUqa8P8XNuvxKpXVoLxGfRehXAgfFzHqekif15kzoRPqykx2NQb+QUC5wUHcvFC4rUg9F5h48v3QOKg1X6JbMUVdKRZ7coPbsUbbMD3qeahsthj5PpZL5hX3JwvxtKwt36/mDAh9RTuNIg5LLMHRQTv31n8MBRaxBKWrdHc9QQBVnqEvuf/rekcsL2l3ddzCQS7wjb6s39GcTX6Sz8dOyO/G3FtH7nbQNsPFdwQQFQwG1LVHAZP4H6n90f0Zdl186G99ZsvmczHtH5VLeJeFK8Yvtk9nQ3bSjsIGt5DXkCAWUbiljnlJy9dlZ+fdr7zll4zk1wa8/kxgUGHsla6bIoNzN9ltM62Jt7a9AoCMNeSIzYavLSKTeIzRQpHjCzpt2IJ2JMyteAXubqTeVLHwkd7Odm7rzX/cuP38LAh1pyIMNbFEGZaHXI6GBGh1VmXJDpSPjvluoSOsqdJZtEcru5CGEjtA8eXnxlaNXPzs2NK9sUemjnGoehgbKfY75E03zsnkmHVzNSm1GuRJTIuW8iUb0uQJblIEhfMAXdD8SGiincVRAKJUafT91aPiDt6SDh1FGdicPbO3O6/JO3OzslOEDsIYv+ITuVaTNXovUYc/OCweK0XITL2TFsPKfJbaDqeTIDgl9HW5ZLGFmuT49+wkNlDvsnT0pVh2YYKtK+a7Haj56JDcCvFCF6lue+HB9enUUCihAkmF/UpHq9dJA6dwbsLfJ+ZYBul8p+yj79OonFFACSX99xzZ/Lg+CnRDobmNPp559QzN219MjyppGFSNKHiRrfUPqPKOVR6VbyVM+tE832TgIBZS0Rn99J5tnJ7euGPkRAl3ScbyL02SXsEDV4lCskamXPfb/vOhpm2rfkFaMzLFRqYs+5UP71IkeTmGB0rd1ZlqDZygIdLedOs/VKwJWpN/BWWxXgKowMoyUfZR9GhZ7YhYKKFl/nUKNZNHumEU5CHSdppTOgz5OSOl/XzpXN6gnPlyf4+p6TkIooGT9dUpgrZG2HBe56cpxpCFP4hMebJfwRcwdyexJZxbvl9DX4ZbtkcJ3XJ+iejs8g/LmfswaQGQOWS8y15X1SBuzGK9t6b74u8Dc5OTQ9oPDCX1TcOJmZ6cMbYc1fMEndK8SGiivDSvbA6Z08EvEY8T5dCbxGnQTgS3KwBY+4Au6H5n0oNAp6eAWhI7w9UPDiU8cvfrZseHrZYtKH+VU87AlQKE7crnKu1Qagm4RD6Qz8bP9mfi+w8OJtQPnlr0MgY405MEGtqRoCGWh1yMtAwqd7Evme2QZtEv0ByI9rNQOm/hEqTj6FwQ60pAn8gC2uoxE6j1aChQ6Kw+b++TxYrlA2EhEeyU8I+n/aCF1xk3bCBvYSnpDjpYDhV73duZ/FQjH+rryn0q4Si6tOVq6CqvctGOwgW2jpCVBNarzXvxEoAxpRaAiUIYEDM2iERWBMiRgaBaNqOqgKnIiUBU4qkciUNXZVOREoCpwVI9EoKqzqciJQFXgqB55DAAA///RkNa9AAAABklEQVQDAPtuGsJgC0WlAAAAAElFTkSuQmCC&quot; crossorigin=&quot;anonymous&quot;&gt;" style="text;whiteSpace=wrap;html=1;labelBackgroundColor=none;fontColor=#5C5C5C;rounded=1;sketch=1;curveFitting=1;jiggle=2;" vertex="1" parent="1">
          <mxGeometry x="274" y="150" width="110" height="100" as="geometry" />
        </mxCell>
        <mxCell id="tKPjn2sMKfOxzuckoDCL-8" value="&lt;img src=&quot;data:image/png;base64,iVBORw0KGgoAAAANSUhEUgAAAEoAAABKCAYAAAAc0MJxAAAKWklEQVR4Aexab7AT1RU/ZxN4aMVOaeElEQSFcVCkatUqUC1+YDrIS1JALP3SaevYfx9ALJAEaIdWIQkwIHQ6lc5Uxy8d9VEgG7Ct01Ytf3SsnYoIrUVp+WOSB9oOKOU9yO7t72ySNy+P5LnZXNqHk51z9px777ln7/3t3ft3DWpdrhBoAeUKJqIWUC2gXCLg0qzVolpAuUTApVmrRbWAcomAS7NWi2oB5RIBl2atFtUCyiUCLs1aLer/DVQ4VYhGU/kno+n83nAq/75wJJXbA/lENFUIuyyfY6bHl+PK8017i5q+8h/DAMjPmdR2RfR1pWgKE40QJuKpkN9QpMxIOv8zsaUBLknX5WuAx7hK0gpUZFVX+5XDhu0j4gfJufgxJo74fNxeNHxBYo4qpTY5SYq+A9vXZq7Oj3TC/W46ffVz7SmoFSjy2U+hFNexoiNoSZ8344FFmXggu21J4MRzS0cVzFjAzCZCC21SdxHTMdhOGmKQ5IHaj3T66ufaS1AbUJFk4ZsowJfAp322f0o2EfwT9Jq0Ix7aXfQBLKIzMJiJvuxrkL2k01ev0yYVbUApVoudsjAt2Lp8ZN7RB7g9tzh0RDEvFBO0vu+LrLBOXxWfzUotQEXSJ4cz0fUozGkzFqz9KSGxP2VjgV8g7hQx3Thv/bHLoJNOX+JPF2sBiuzz06RAimm3yAb5Fdgb53qGOj60+oJjXaQHKOJJUiC0qr+KbJAPiL1tWDeKJK2+SNulBShlqHecEik1wZGN3BQ5eZiMw4RLpy+400ZagPLZ/LqUiBXfLLIhZvqc2PN56y8idfoSf7pYC1DbE8F/okBn0EeNbWR5Ek7m5iLfaPCpzIqrZF5FOn3BrzbSApSURhGvLkn11JxVJ4OiD8TRR98dw8xPlm2cvGWddPqq+GxWagMqG2tPojB/BH+q6CvuDacLd0KvSeFk/nbyGbuQKNOK35uxwFrovaTTV6/TJhVtQBGz8lv++UQKaz0ax0q9HE4V1kdS+Vmz1xZGdTx67KrwmkJHOJnbyEyvKqaxRPy67VfzJS/1ver48uSrr98mdH1AoRAyI2+7Nngr1Bj4LJNaBLnDslSX4fcfZ1tlmXkB4s6CY23Xtt+WXRx6D/oFpNPXBc49RGgFSp7feT9bZjy4puhXmKnzQ4h7lojfJaLjiukZACWL4oliI7aIr0uSLnY6fNV9iMsE7UBVnitrOTMe2GjGg18x44HRZjw4JhsLzs/EApuwKD5asXMj+/rysT0D/dssr77cPK+WzUUBanY6d304mY+FU/kX0K+8Df6wzIcg/xBJFxLhtYVrahWof1wkeWIC+rrHkU/yKkvxQbLsfQifhZ/dSFs/e/Xx6/rn0x3WCpQAFEnlnpfKMFOKiaYT0XjwJ8oss/B7SKnVbKnD4XR+Z71KfjmZuzWSzGeIrUPo676N/JIXgrAKUDJgDIOfaUhbZBm+twDa5nvXnAiIwcVgbUBFU7lVAhARz2DZuCPegJFvjmXx5G4fX9HW7RsuOrGa6+xyMh1jRfdKJdHyfkT9Lpv5t8QUKUc/wYa6u21o8XJ8whPMeOhmSGBtjAdY34VNF+S3/Lb1Dl5UeXcVsRqpaaBk6I+k8rswSVyGcp2CXJBJBMdl44GHM4nQtp3LA28+vyRwpnPlqA9FN2OhrbLLacaCVxPxQ0T0ARP9MJLMvxhel/sMwg6hpSxH/DrZRgYoD2SWhnZ1PjxGRksnXW47E+2HzUTocbyI8UrxKsRdTr3b0KT1ahooDP07UKIvEEY2tmkqAPoJubxMdPbomJGXutB6vshFFl9O7kw8tDkTDy6RbWQnYoCbvIhsIrACo+M41a2mD2DqOakpoNCSOvHk28HvcdGaklkWPAi9ITKXtL+BCt6BTCfBd0TSuV9CeiIZHbMrQ//xlPkjMnkGCud198G38HmDaVZlUYu4hkkqqJilP7JI8VfRMYvesJ+LmcEzUErRI07BFKW2x4KvOnoTt2ws8ArO+0prPqVWonNGF9WEQ81ZPQHVsbprCsoxEXyira0oi2GozdOwbr90yO/D0y2RNXlZCkG9kDpSuasjqcLCaCq/BZ//AfDpMh+QuGi6sCCK3YkLc3qP8QSUz7A65JEY5p/uPxJJvFeWkVERb3Hy2+w8w9HLt3mpf30ymsz/1CA+gsX3Y4pI9rNuQPLwMt8gcSjXRuU3joaxAI/g4ANpTZPhzYNxm+TDt/Frke7ZhaVBlZGvqkXNSR8f3UM9exTT90pe1D48f53M1eQUWlh0iUP6fjCxLMBVcY+OiagnoNCXYA5E5LeHyAxZyqSNjXNWySerMRWncuxeVL49CDuHGGg1S0xMOmX6IHM1OYUWFl3izHjws7CNgYUmYyL6ssz3JOCVDY8ZZfuWsEGXQ9+gdLJ8MqUysfMyRB9iqO2QEv6bzO6z8eA6hAckgLWGiQWwv8NwnFVUpU8aAS/kCShF9JqXhzWWR/1Z7COp3AoinkpE3T7bisrsHrorysQD+5FHfjHqJqa7wsl8pZW5yt/XyBNQeKP34I3xxeXQjNLnwrI0Qpk5vm3ZaGkd0Kspksq/hPXiC9WxpVApj1ouIWZagUX4p0VvlD0B1ehDvNpbtrofeXHUrvaasfbS70KIqEF3c2mnokYSEdaVG4hZ+rgrbMOQSXJNu4EiBzVQKPgsMDYcjE2oKL54CXlgxnhI9mbJaRM7PkVvhAc3UIqkMyYm++1GKlXLVlk+xwda3k210j8qbnADRRSSCgzp8b8lssLSJ4F7R9s+8b1x/fssHmodKtt9/PooVEx+NKOeIUp2SBEsEb5Bu6TVvzOpYt9U7vH5ymFkL2sNiMHeomTrhciwbulbp/6jbiWtehQOzajEi2S2KzP9Lgk3yoMcKFWapRtGFVCNVlLslaFKP4MQOT+UUIPXoAaKiUprSaUenLnpUFuDdes1n7fywFAifoDkUvwbEY3yoAZqKA17GhU6Bb7Gf2b4DyBrk6KXsJvwu9qJROcuG/FjpI0D/1sZvmcgGyaj0Rz/S/vO+IhT2CB09ruYVWzWqkL5r7zqUpiJ4HQzXt0nVSww+k2CD+dHXFbqETM28oNKWiNyUAMlFckmgmlI+c/T7/OpzmiqMBlhV9SR6roJn68sqH0Y6l7E7sIGVxlrGA16oKTMRcM3m3DKQ0QTscXzBuZQS6EPSNh3TxhkS8c9AYZHya/mQXqmSwIo2Wvyc1H+t3J+jEVt0wBLAEuHk7m5sniWrV+cDc5DvKS9iT33ys9p+/2W/856f83Alyu6JICSmmyNjT7eRm04QqfKuaF8gkuZeQvOFrucfSymZ2Erra28wccbiP3T5BcixDdFlwxQUkvp3DPx4AKb1FjCKTP6n18RkZwlSgctfFDiAN5CP1tjsjit9tp5w28VXVJAVUouvw2ZOGUGaPeZ8eAk8JVlniRx8muRtMCKvQ55SQKlo+KN+mgB5RKxFlAtoFwi4NKs1aJaQLlEwKVZq0XVB6oqpQVUFRz1Ay2g6mNTldICqgqO+oEWUPWxqUppAVUFR/3AfwEAAP//BPa15QAAAAZJREFUAwASV8bRSfVexQAAAABJRU5ErkJggg==&quot; crossorigin=&quot;anonymous&quot;&gt;" style="text;whiteSpace=wrap;html=1;labelBackgroundColor=none;fontColor=#5C5C5C;rounded=1;sketch=1;curveFitting=1;jiggle=2;" vertex="1" parent="1">
          <mxGeometry x="120" y="150" width="30" height="40" as="geometry" />
        </mxCell>
        <mxCell id="tKPjn2sMKfOxzuckoDCL-9" value="&lt;img src=&quot;data:image/png;base64,iVBORw0KGgoAAAANSUhEUgAAAEoAAABKCAYAAAAc0MJxAAAKcklEQVR4AeyaDZAURxXH35s9PqwoIX5FQ7RSxjJVEqNWJXI3M3vhNOhRCiapHIagBhIK0NIkUH4At7u3t3uHlTKQiFJBLCR+AOWhoIacEJPiuJ3ZI1IoiaJBktICA4WxIhErBNidzv/N7pJdmN3bb5aq3eo33f36dU/371739PScRs1fUQSaoIrCRNQE1QRVJIEizZoe1QRVJIEizZoe1QRVJIEizZoe1QRVJIEizZoe1QRVJIEizZoedamDah0JX2PYff8w7ehAkWMpaKbbkblmPLKgoFGBwob1qPH8lgSTugZ976oUlhnv69KINyilLTOsB9+GNksOWsk16lRhqPXb/yLmWenblQ1LIJFSrlcKeMWnr0+3WVLUUKAwqNmGFXkgMwJLD2ypBBba68pAIkU/lXbH+sYdkbhUaShQRGoBMz+cPdXOh+WPR5cVM8gcSERLiWmG1HM9VRIlSkOBYkVr8JdPYgw5Uy0FS90LPRyElrfFIx+XdD7JgcT0NSb6H2yvgPwMUla46KD8e1Z8ONPzmBH8Jfn4NuRfg5wHK/RjeMUO6N/awtoUxJ4hG5JDap6lB9coZtebiPlxz0pFKC8qqCl7+q9UieTmnKnWFnhcKecO9P2/kC7TivwWcSooekoSjkOeoLIhwYu64kboMWwJ7oIbTke9I5T0ufWRLjlUDdT0wa+PM+3IStOOPg9Rpt33ImL3aZOvV8+0dh8njV5BeVe2rW32/A6w5iii4/CCGWjrSdggYHLi6hVyIWmfE+/sGhjwseL0w4EfsvzLBL5X9VF1VQEl0+fkhHfjr8VLcMfrIAjqA7gIgJcQ5w2YGh3ENEREYnsOrMAi5czDAn8YMs20ojHYfBJCmkbPSJyRHEhJ55aY0f2ElB2bdPABwL5J2reMwGrRlSsVgxJIKpkcQGdMDOgJYjXHMoJMjnM7FmZ5JF8Fb0F/83fxfFj+4RXvEmuBpZRapEi9kG7/s9C/RGfPxhG7IRuSxmzE2nueloKp8e98ELHrTay0h5CuKFQE6hwkoslM9OSpcVfeZumhTdIjy9+zzTKDdwNYr+RHg+Wo5Bdg9yykS/mSI5huXzVj0akY5Ckm/gv0mRCPtfc+JxkTO25KbyaJeN2wHjgHMOEkHiWiqwF4fcbDkC87VAQKC/FK3Hky3GUvJbW5+25ceBb5nABg4WJgxY3wv5UaM5MU/RANXAvvXIP1a5crRLcS0d8gEtwpmgOJaR/sFwCu1CX8UcTDbwGkoZbTSderpGIlUjYodKYPHenEzY9rPm1+rL37GNKeoVhYtrn0MLxwEbPT6cJ1H+e8TjHNbzmT1MlRN6Zv0JXxJKX4TsBoRV+yYUn53x1F84c6wv9P16koKgtUux2VRbU7dWf+Zqy1250Kqbz3NRuWnAp4W6W0Mb1np9hbemCmZQQW2npwPQZ8wvKH9tGb739ivMU2A79AWYITvumU9iwUnNQ0bV7cCL6IdFVCWaAc5nfI3ZloEAMperdr+XvCivgxxqmAPx5dQSX+cqYbUQLV3WmImGLty1/G03A2YA0R893DWeuVlFcqZYFiJheUIir46PfqXFJLuIs71qL3e5Xn0+VAkikoQiTT6hys4dbgIUsPdlh6YFu+dsrVlwUKi/h75IaKeIzEpcietvA/xd4hkncvSY4q2ZB8pD5hYQpCnmWfbwqA/wcNnIOFdE1CWaBYtbhPFyY1V04iS+mZ347cKfYa00GJR5NsSEqp9t1GaG+mTqx1+V+5xXcz8kcgNYVVFqiYPOGY1qNz1JLguRIXI8ZIdCa8cDMRn3Y03kqj/HIhOZ+2zZDsznNqubB8vk5iOoSCmsEqCxQ6RMqh1EA1rccdkCgLiLycskO/SZsst1sDVjrtGbltZjaTTDNss+f3noZQurA0n+y1DiDbZVjRVYirGsoGZZvBQfQkAMFez1klu3Q3neeilDYtVcTr8KQcdSCOUn+E/QEm6rL04HakCwYXls8nR8cHWDly/lTQvtTCskHJjSwj2I+BbCTiq1XSKTh4dpwfENFRUF3gj/eFkC4YZA+ExXqWnAIUNMwqFFjo0/UWtiFZ6qokKwIlPUhScoki+hMAfKaQy1t4UhHTQqmDRbnXsCLzJV1IZOCFyutZVjEoeUfTWC1Gp1/H/mqxEY+6R7bIXxDcKcTKhcXMPzJG+qdfYNSgiopBybhiemg3puASSbOiVbodaZO0l1h6aB30YQhhOg6aschHJd3oUhVQMkisJY9iCn4f6Qk+4pVT9vRMQNozYB3pTdsSabx/6q7wOz0NG0hZNVAypqv06xZjHXoKENrGJFoKLu62EbwPtpukXmKs7+XJA+Gxkm5UqSqoLTwrqZHCFFRHAeFe/0h0ce7Ac3NYs+YQ8U7C74pJvtPtu/veh2RDhqqCkhEO66E/K41cQMqhVe7GUQryiGUEOpn4V1LstKjDhtWXOXMSVcNI1UHJyOy20AA5TvqUQA2MBitmBO5gpoelLrPa67f75WxcsjkyfXD1OBPHwxLnFNQhUxNQ0m9LNn2lwNKDSxRzyhPJ2W5akbukHRHd7v+YaUe3nbz81ROk0S6JJS96Ka+H1AyUdL5UWLYeeASb0a9IXWLeaMYj94g3auTsgk7e5cYT0xARjYfcKnopR7rmoaagpPclwzJDa1HvHgg2+7yeUi/GEwlfWQiHdXgAdJBDHUwkX5AnSnk9YNUcFOFXKizLCG7AR4MvoqobmHmthbNzS16DoLH8waGYEfw8klsgADr6OujaVXCpCyjpn+XvCVMJa5ZtBjYSjlcwFRfH9EBqOkpDWWIZQTktqAusuoGS8ZUKC9Nsu22GHpG6+eR8WIYVnZnPthJ9XUFJR0uFJXVGk2xYnN7DjVan1PK6g5IOXgDL7ksdAEphmYIPpAtQdT8pmlqLxf2igMKASGApRd+SNJGKYnCb/MP9703lS78OdYRPMFN6k+tMLb2FwjUuGijplm0GvwtYsgs/iMf8bKU5O/zx/k9JWTmiknSC8FOkVf0F+6KCwpgIsAYTWrIToLYR0w1KOTtMO3KflJUsGt0vdRQ5tsTVlJJBVfPmmbbko6hlhm7HFOyDroWIv2fGo2tv2PmNy6jInxnrDcNUdu/7x55xfo10VUNDgMqMyDJCQXIcecc7RooWTrjs8h04Lb0pU54vdiHhs5mUyzol65WkqylaNRurRltY5DezT+uEdz2NqWhqxAIr70fWbEhY7xbF9GDVvUnGpcml0STW2v1cyxkHsFj+7/LtGvEG04r+BFDkX6vd7up29FrTimyltCdBudQ2g+6nfqSrHrSqt1ilBjF9EpYRuF+8BE3KiemXAWWraUeVCDr+AjEDHD/PpL5kGcEHYVezgPvVrO2qNCxekuTkR7B29aLBo5BMOETEqx1K3BwzQj+nGv8aHpSMf0QPv4K1KwyvmcTMU069NmYi0h+y4HHyXVFsai2XBKhsCDE98Id905a+mq2rR/qSA1UPKF73aILyouKha4LygOKlaoLyouKha4LygOKlaoLyopLS5VyboHJw5M80QeVnk1PSBJWDI3+mCSo/m5ySJqgcHPkzbwAAAP//+ohqPwAAAAZJREFUAwB35FHRvBUFYAAAAABJRU5ErkJggg==&quot; crossorigin=&quot;anonymous&quot;&gt;" style="text;whiteSpace=wrap;html=1;labelBackgroundColor=none;fontColor=#5C5C5C;rounded=1;sketch=1;curveFitting=1;jiggle=2;" vertex="1" parent="1">
          <mxGeometry x="190" y="260" width="30" height="40" as="geometry" />
        </mxCell>
        <mxCell id="tKPjn2sMKfOxzuckoDCL-10" value="&lt;img src=&quot;data:image/png;base64,iVBORw0KGgoAAAANSUhEUgAAAEoAAABKCAYAAAAc0MJxAAAFFklEQVR4AeyaXWgcVRSAz5kkxhIUxMbi7Ka2CFItlGKb0oc8CGoVQUl2sjtZRFQQBR+KUhQfRNsHH4RSHyKC+mDxJ93Zv5TkoVTxB7VPJpaCD4JotclsWvwpKgZNs3M8J1nbXdnd3uzeTLrbO9zDufeekz3nfnOys3NnLDCHEgEDSgkTgAFlQCkSUHQzFWVAKRJQdDMVZUApElB0MxVlQCkSUHQzFWVAKRJQdDMVZUD9n0BzY1NRivwMqLUCNZOI7S+4zje+68yzUMgiMU/5buxVxfUru2mtKN91JizElwlgK2ewjiXsJjG3AeDznEsKNB7aQHFi73BeDzKkSZYXuwMrGvFyGKbg/EIPINyJABnOxZ11Y8+w1tK0gCokk+s5m8dYwAJ8PerlXlmfyfgyDlPsycn5SCp30vZyCYb1OwI+pSu+peODguDvSOlzZmwv+2Gpv9bqDCew5Zzr3sq66aYFFGHHDZIJAnwv+gqRXyWPBSz2iW5WtIBqNolW+HsDSvEstS0oIniLkB7/a35hWpFFXbe2BRVJ545EU/nDWyYm/qxLQNHYtqAU16/s1lKglFe1Co4GlCJUA2o1QZ1LOtt8d9j3RxyvWpy5ePwOtk0VXOfTavYw5jh2mu8/TxcSzqCOeA1VVHHR6gIgGwgSvht7uzwRgURWkGbbDkK4rtwWVl8g8Y15nONt4hyOFNzhPdxvqjUEys5kpgkwsRwZn+ggum+5z/gYEvE2C9/OTAUWJP+bD0uXQSqWYl5LRGOFZHygNG5INQRKIkW9bIZKsAjgBZlj6eW+7EV9Xgyswb6x3Hc8F1q7BAnP84n6QgKzzvDWy40UBB/8FB/cIXONSMOgJFg5LBkLJJZjix3dg30hb7NcggRnMMB7JR+RIuIbS7AANnZaHe/NjQxukvmVSlOgJFg5LCLMRm6aH7plbOy82EKWjVw50wg0JF8N5bHt5f2pDM/dXqTOftYrbk2DkogCy8Li5mg6G8fRY//IXNjCMHbzpt1O28t/XS022xPXdJEtuVazX25OCygJcnPq6I+ir2TpfT8/12h+2kA1mkCr/J0BpXimDKgwQZ19ZE/PbCK2by7hPFA/butatVTUhQvX9yPiQb5deK51UdTPXAuo+iHaw2pAKZ5HA+pqB0WAtzGD3/pS2c9YN93asqLk1SPe8LFZtL3RsqagZhPOo7IoXcIbdK/5rnNSXj3iEvq5E7oOsdbS1gTUD8mHNvC2yJuIcFgWpUsISF7z2c5kTmBgxTZ4nrZ3IUIHVRiJDXUHXR8TwJO8IAiIDugSANzLgHZGvNwAb7V8CRqP0EDNxOPrCu7wQSLMc/5bEeArgmB7Xzq/X5dEvOwoA9LyCJ1zrGihgPITzj1oBZ8Q0D6JzpAO8f7Qrqg3fkrGrSCrDsp3nZd45/EjhrObgZxGgiGGtASMxy3TVg0UP7baxZCOM4kDLNLGqDvot9O5ozJoNVkxqGoLXCzitzLPX9B3iebL/rMB/6txX56n/cG/Z/ZGvNzD0XfHl96C4/mWa1pAbc5kzgLhuKyeq4j4si+/X3p4fJz7d0e8/Cj3W7ppASUEFgifZn0CAH/h76RpueRzFd1vp3JT0AaHNlBSVQxmIOJle+VpiFzy24DPxSVoA3XxE9u0Y0ApnlgDyoBSJKDoZirKgFIkoOhmKsqAUiSg6GYqyoBSJFDbrcJiKqoCR+2BAVWbTYXFgKrAUXtgQNVmU2ExoCpw1B78CwAA//9XugvgAAAABklEQVQDABHmcbOX5F0HAAAAAElFTkSuQmCC&quot; crossorigin=&quot;anonymous&quot;&gt;" style="text;whiteSpace=wrap;html=1;labelBackgroundColor=none;fontColor=#5C5C5C;rounded=1;sketch=1;curveFitting=1;jiggle=2;" vertex="1" parent="1">
          <mxGeometry x="650" y="140" width="30" height="40" as="geometry" />
        </mxCell>
        <mxCell id="tKPjn2sMKfOxzuckoDCL-11" value="&lt;img src=&quot;data:image/png;base64,iVBORw0KGgoAAAANSUhEUgAAAEoAAABKCAYAAAAc0MJxAAAJm0lEQVR4Aeyaf5AUxRXH35s9Di5BIQmWSXE7e8Dt8CPkh4ZU8I8g/AEmiibC7vLLKARLlNL8BjGJpVZZERJNqjSJYiEaSiLM7mkFwYhJCkOqYkgK0YoCN8vJ7e5ZIcT4I2pO8Xae356du7r12LvZ3dm7xZqpftPdb7p7uz/35l3/GI2CyxOBAJQnTEQBqACURwIeiwUWFYDySMBjscCiAlAeCXgsFlhUAMojAY/FAosKQHkk4LFYYFFnEig9aW2C5HTTOhFOWm3NZvtEj/0vo1h1RUfcovSUdRxDWA9pJqZzmWiRxtw1sS3dDF3dhBEFBStaSEItRPKqTfl5JNosItoFoZAt16u4XmREQQnJVAcE866u+PSns4nWg0K819XNcOI6uY0oKDB4GQKDoq+TezHLF1VSiDIqrhcZMVDNZq5Jk9BJUGoHjPF4DQWO/CRexZXIE7G9jeroGnZQETO9GlBMjbstYftPRFx4/YgIjvwcci+2+e/hZPt7KPtXAFzlqkcsGjZQ4Z3pi/Dv/0lh2YLRxiHqv9opYt7JxD9B/m5hfkDlYVV78Oo9DX0D9Bcw0VbA2qeb6RjyIxJqDmrC746eFTbbt7AmTxLTRYDwGjNvZU1bdM6k6NhsLLo0E4/+KBs3vp2LRa9W+WzCWJiLG/Ns0aIAdjvIvAxYc4klielE6pNmus/y8GxYQk1BTXy0w2g6pe0CmNVqNMy0Xhs1anImFl2dWdz62MFZ/J7Sl5KuROsxALs5K89FmPgKlNsD0IsbNXmmxbQ+j/ywhZqBak4emRuy83uZaC4RHYNcmokZP+u8fNLrSJcXEok8rG47rG4hKiYBa4rNdCicsq5FflhCTUCF26w5GoX2YUAtxPw4a41zMMjdfowI7STQThKCN5HuDZtHL1PpWktNQLFNP3Y6bstt8DmXZRa3/MvJ+3QrgsXatnO3Pf9Rn5ou2YzvoCIpax1+bT6s6YWmMXIX0jUJDixYKxof1/iRpvsR1zT4Cko5WJGCNUmI7mr/2rQ3/ez9gLZEHEAstFw3rfkDnvuo8BWUrdFy9O1sEtmTW2w8hHRNA6xqt/KBzo8wrXDiGt18A+X6CTWRJA6FavbKDeDgWhX0V+lmumYLad9ANY5pisMvtWCC+CjmSPvQ8WEJRValifKPNfld30AxiWNNGtOzNenpYI26VgX/+Mpgxap55h8oTWstdEQOFeLhuyurgjBm8fVvUSJiOGg4P+ygnN+t8a0ii8LSYZm+s/3W/uL285j0hNb015eVNq1r3HbqLqoIFJz2NaTxLUVSGFprke6DZYbKM20uNHP6e3inNQf7U5uw5dIWSVrPI/1/3bSyiJ8Kp9L36Kl0gvaJ2po5fQNVaCsDxXQ/YXniiPpxpk4n3aurNBZaQ6e5AGYVYOxljf6Mx+ux0F6E/66fRbqJmMKI57PI9SSyU38lfRhlN4Z3HJsJvW+hIlC5mPFIdsnUW5Wg0wdgYS0U4ojKVyUJw5lp940O1oFB34ff2ArdAsgfmOQXzLwauwez3+3uHstiT4b+UmK+CfF2IlZngjfiGGePskDy6aoIVP/fzlN+g5MXWhk2rcJ+t6Oo7hbZcfh8WMdbaMW1Mr4D/9kWZOJTv4f9rK1dMePAv6/83NuZxLTj0O/OxqIbEV8hmnwVdQ4Brq4sMGymr0O+6lA1qC4cM+E1uFP1hJke1JPpeOvD6bNVvlLRMcOWUMNB1B8NeR3HWtimif4Q6SEDlk77Aex8HFo4hxM41fm1nrRuGLLiEAWqBqXaz8WNdcR0n0qjg+ap0fIGOideBP6naBaP05mPC9PvnbaYjmDQH8vFp/7FyZdxy8anXsUcusStcreOP6CbrijyBZT65WzMuM5x6EJ74bP+p3QDZWgNc/cW+CFdlTxl84UqrlQysSlPEJO7OJeN1ey1+waKcGWVg08YX8HhwLhs3GAvksMhAqo6Qb1y8C2XqwwLrTiRiP5HpasRwF6P+m9DJjeyLEJcUfAVVEU96FdJ2C6cGAs9lEkYv+33yHNSvWJKeiso2EKsYCnVhwMUE69Vo2GNy/ZJql5LW3o2kY2phJgq3yuhnp4n3PSCcFuHc2Tv5j1HdWNRk82Ocei1mgMR99BhpMsKnzZfbLTzsomIx8KCivbDOpdN74T+n4SLyZ6GqOxQN6B6QvlP9PW+u+G5vrTHxJs8ahMc9xwS2ZeLR38woBqLmm4Q9dhTBjzzoKgbULCGCW5/j3aumvSOm/YU6W3pb6Dgd4gZZ4ahdUgPCGKTWv4Q1qIzBjz0oKgbUBgAl+qvjl2FcIlZf3jH4ZmYlvzKqWvLjeobKydd6iZU0ZgrqlSqD1Xpbe2/bv1pLQ8eH+OmCxHTZmfWj62dgqLfPdRwD3JnQTZjWlK8VoSyN7BGzpwM8dFeXTlx/YCi0a/2dbypp/i7ArUboR5qfIva31JJJeFk+k6Y4Vxi+kc2bgx+vC78BVUHPgyO3UmVdasbUF2JcB8o7CgV+RE1kcXrdZszMhdWOGUtY5LvQ5cnWxt04dvyyJEWIvkMypLYfGaDcgZB5CyuxZYvq3x/+SAszNwLE1KhtUP5pXxDw8VuW89klxh/dNNlRXVjUarXGnNh8EwrI6a1XOn6SxZLJGVZTHQAr1unCK0azC+pump9B8v7qUqjzg4nruBWV6Cwz3RIiB5T48AOwnY1SJXuLwpWJm7MxiJ8Ui5huAve/iWK042aKEjqI46XRmna8IEq7ob/OZGmq4U4q1rGIAtzH5WpQCKpjotJyN1M5A0di1pPUoVXXVmUGoNy6vA/apcS/pem60nrtXCyfYDPUmUHEz3Z/huR/B63zLey8ajzTZWbLzuqO1BqBNlE9DDne9S/83eRH8/E+/VkWn0Qi+zgQX3EpictnFbzlaqkCK/F1EHNtVS2YqlLUGo0maUzns1OiI5F2j3CkpsA4KlIsv3nkVT6m80p60vqw5CIeXSSnrQW6qn0BsQPs81qd/Q8IcqKTRfmEtF70UbVoW5BOSObxz2whmvhZ9Ygrxa184X4uziVfkAT+tvopqa3hLWX8OxxErkD8Qq8r7Yw/5Ly2iW5JcZ+6HwJ9Q3KHWIWx1gANssFhr0qfpGITxCR+qr4DcTHBOCE6HZbtPNysegNuaWtL0DvWzgjQPWO1gWmTmRmwjl/CvAaIeMh0VzCuCAXN25Wn1z3lvczPqNA+TnwctsKQHkkFoAKQHkk4LFYYFEBKI8EPBYLLKo0qKInAagiHKUzAajSbIqeBKCKcJTOBKBKsyl6EoAqwlE68z4AAAD//8ZmNLwAAAAGSURBVAMAUui/wmagPLQAAAAASUVORK5CYII=&quot; crossorigin=&quot;anonymous&quot;&gt;" style="text;whiteSpace=wrap;html=1;labelBackgroundColor=none;fontColor=#5C5C5C;rounded=1;sketch=1;curveFitting=1;jiggle=2;" vertex="1" parent="1">
          <mxGeometry x="370" y="270" width="30" height="40" as="geometry" />
        </mxCell>
        <mxCell id="tKPjn2sMKfOxzuckoDCL-12" value="&lt;img src=&quot;data:image/png;base64,iVBORw0KGgoAAAANSUhEUgAAAEoAAABKCAYAAAAc0MJxAAAK3UlEQVR4AexbDZAcRRV+b/bu8iMgiJAICWR3ExMEtBRF+VEKQREQkEtuZ/ZiAqkgphQMomUoU1iRsiJVEExECxEKIwm3O3Mk/EkK+VERK0D5x0+BJ7nbTUAFAoL8BJPLbT+/NzOb7P0lc7vLDlg79d706+7X06+/6+l+/WbPouYVCYEmUJFgImoC1QQqIgIR1ZozqglURAQiqjVnVBOoiAhEVGvOqCZQERGIqNacUU2gIiIQUa05o95NQBU7vMmFbH5FIeveV3Dc58GvgB/qc9zrCtmuD0ccy17UaquOfUZtdrxzJSFPk/ClJHQqhjMZfAD4RCZaRJJ4HIB9E/lYKVagMGsuNyTrgcABQryRmOaZEs8wra2TRGQ2Ed9BuADYNdBdDTE2ig2ogp3/CEZ9BVhpq2XR11M5e+307kzv9DXtW9Ousz6Vz3yJiOcT0Vvg83T2IY2FYgNKLO6qGPHBYuTeYqd7WkWZLwKsNRAuARNm3w1Ysyap3GiOBag+J3cKC30Ig32Wx7fpevQ3yAeJoXsKTv7G3g5vOvK7KJW3b0DmD+ADhSy8kpAaTLEAxczJYJzycHL1uf8BWMeL0PVBGS+0ErKp4LjPYhf8ZZ/tXVbM5r9KxDsIFxtOIWk4xQIUCR8ejJSf0lTBSrv2IizgxwpTHmWvgqeS0Hxm+aEI/4xITkEZ8S6QNdc4jgUoYXk+GKIcHKTBHQv4H9M5O4tX7X2GzAkoXQrdVUKyWoj+gjywM//StNEcD1AlflwHivXmY5qOxNPz2Y0AbHk651ySzjsLYOhjgZ4VpkGuUXerUR1V9rPPuB3+YJnkU72d3jGVdSPJvU5uKmbUHK2zxPxV00ZzLEBNXjN/G7FchcFalpHuLZ236M6H7MhkkaUuwn4idPs01/FfwZE1377SWIDS4SRn9lxGxA8QUbJkWp5WlwHyIFKnFDtfDwpPIqa/bzc8D3IsFBtQvGyZ4fHbvohR/xg8mcm6v2C7r4KfgGvwKPglYn4Mq/dM8F07qXTikd2ZNymmKzagdLzJ1Qu2Y8FeTCKnie5qTPsT09FEdCz4/XAJephlUcq1z56Z63wZZbFRrECVR51ynXvTefsYgMZU4lls8UdVTuWdI5I5J3REy9rxpO8IoIpZ76Si412IcMqVlJArjKHleAV/Wsi63+qz8+17W+wbAV1sQMmyZVaf43UWHPdJeOS/E5LrmWgJBp2B23A6XsGvYW26mpnXlaRli4K4qcM7CPWxUCxAFZ3ctGLPrB4AcgtGfRT4dSbWuNRyQlgFwJ1Fwt9hoptwpEFQj/aFvCSRkK0Fx1tIMVwNB2pL57qUIQuRAJ6B8b4MXtr/1vgpyXxmNtalpal8Zg2OMr9KuZmrknl7IY40R4pFZ0LvYTBIbsAs/AqEhlJDgSp0eDNLZmAjZsehJPRkW1vrrFTeXj7rznPe2NOo0132BugdL0Tfhx6a088LtncR5IZRTUCpk6gGIxRy6WY7f/perU6IetiToPdg/3/HnzDl5vZ/Q45M2BmXsbAfxCOWa7d0eBrTGrV9X6d7hm4IamNv1vvsqIoRKqoCqnj+bftjrXiE4SSqwfB1VhjmDXglNm3u8MJYEw26sC59EgWfAG9rLXH73mYR9EakpJtZxUQ5rSwlzGJNh7IG/tQWNnQ3Zu7VaqMl8gDKNvacfce+Q/Wj5KsCSrb3/4BIdODax524rSUmfX2mm4SsRH4YIVJQflVWTe3OvDJMYSwFnAhj7XzhSK4DJ0i9fY2Svg47dRarjdrDca0TtodtNRudqwIKnX9eu2BiB2vHOeB5LOZzWgb265AOpXYUbNvJpR8hrYmSuTk9+MPojknGtA7rD7upvwxgFp0Mp3U+7DuHRbLaKWb/FzQdK1cJlL9j0bhtE+4qd5jMZx+FvBU8/lkndwjSwcS0AD7RmfU6irS1ti4muBA73hq3obKjvg7vsDD/YmWkYUJbf2grzwrrx5RUCVTQxyF3naWfkYJMcPfzppQYF2R33/EpykvmMg/uLqlN0o1AXYiha11La6IlfLJvSyiTH9opZ6pIawKqiv7etU0aDNS7FieqM1BiFAqxzKSi4y4qON6cpzq8fbTs7WTd8uEvZYroU6Skfhq6E8GtblRnoAK7hPlhWHkddsfuCQl5o2h7I/o7gXZtd/hG326buP11EnK1TyOysbYnjty6rkDBXYCt5Y74XtEfXiCLT04reyN8RIDqmCh0YjX2jnb8EAWhZdJrsC1aUhvXFSghavPNwYeDVD5zWjqfOaF85MBHhNuxdb/Xr6/DbdPctfsJWRpxwMTli9HfZ8Cnwgu/Rh8PWxKa1ovrChSMeg+Y4Oj5RwyV9ciB9B7wFE6YFUjrQolSq3rfh7DQBrgJPyk/FMeW7lCeEKZ1SeoMFPvrgyHr45XW4Wx3AflHHF5YyHplD75SZUxyX6d7BhqcB36NW1suQLqb2Ap/oceP7C6sXaorUHi9/GkPs1Y+1+EditQnnO3+ycLf8DMiu/76fr6KGxsJzpNMF01bOzv8PE+0ae66KYiU+kck2LKqikeP2qRaoF7SJ/5j/voDNS3zNM/+LQcn+4k7hxyOk/nMaiLWr7wf7Mu6s6nKq+h4NhHPQD9/hre/liqullJJwZmIs16X2lJRRRVh5Bcry6PK1QHFpL9nov7+HcPjQSW+NHjNaM7mjHvyEEMQ6iWst7SMqriEBPiYy/2mTIhg+JJ/03gY6tu1734eHn5pSZSO9BWJfdsDOfq9KqDgyj0ddGENO2AmuzMvEMlSrTeW3KhpmbEr3RrKR23+8roPhHLkpNi5/jAh9geczNm3VzZEPMz/rCWGl8zMdWqIubKajCSOCArE/6lRIEe/W9FVd2smDHlhbkGYDkpSOeda8l8zThU614W/hSL/wpzwQTamNNUvGMPNDAxMCdT5iSAN7hqHh4Tn8Z/SbgaOLnJDCOGV87VImPX3VyqOiasCKnz/8YGAjtNPTiP1yFRqZ41Xdc3eMqje0DOatwztWuw1H4U5QfrTaqiK/wwIPh3eNbug8SaDPv2CIbdi1tUd8lgm+k06l1G7h2jsPVsVUPpYDPR7mjLJit556wf9IEzLEZ/ajAXcVbmSmalf80ZMORyi2UiM3S60V0pDGyRdJz89n31uaLm+4iLke+8lCte3oUoR8mHHETRDlXLizyqm+5GfbO0cKK89yL6zCK+rLhP64fRuAOn7edVYWDVQ2lmCBzJIi0Ty6T7b9f0X5PdMzHgDoGKFKcSoxGyF9kZrW7Bd9d5PxPOLCWugpp8MhR3jUVXQ4V1zX8VXXY1BvwnTL+mz8+1VPOZtaeKvnUwX4+Fvqo1qK+SqqSagtFd81X2GLdKfDWJD4TXF7K2ztDxO7pvrHY218ybYYNQ2tRFyTVQzUNp7ssv+tQh/F/JEkYHypyFkhxN2pwEtFSN+qnJUNhy0AQh7bGuV5DY8U+P2S9Q2yDVTXYBSK+C/XIlU14TEC/Nu9qMIyA8jYf4FCa0zxkL8aFj1HgvMAP8+aItnjKKpoRwhSojQylTevnoUtTEX1w0o7RmGLcZ3tPSevnikcpn7Uq49Z0Z3xj8varuorG20bdqzdbcdsVm6O/Ma7EimXbuu/7pWV6BGtPz/pLAJVMQ/ZBOoJlAREYio1pxRTaAiIhBRrTmjRgdqUE0TqEFwjJ5pAjU6NoNqmkANgmP0TBOo0bEZVNMEahAco2f+BwAA///GuGGvAAAABklEQVQDAPRoqMLqFuV7AAAAAElFTkSuQmCC&quot; crossorigin=&quot;anonymous&quot;&gt;" style="text;whiteSpace=wrap;html=1;labelBackgroundColor=none;fontColor=#5C5C5C;rounded=1;sketch=1;curveFitting=1;jiggle=2;" vertex="1" parent="1">
          <mxGeometry x="550" y="270" width="30" height="40" as="geometry" />
        </mxCell>
        <mxCell id="tKPjn2sMKfOxzuckoDCL-13" value="&lt;img src=&quot;data:image/png;base64,iVBORw0KGgoAAAANSUhEUgAAAEoAAABKCAYAAAAc0MJxAAAJtklEQVR4Aexaf4wcdRV/b3avYgVKExNALO3ubWn1kNvdkyCJSKFEEzWCiFj8EaVVULHxdwq9vev2bvcKxPhHFYqoQaMYtAKiMVFpoY0kLeLtbktLIO3utpSA4o/YYlLau53n583u3N3ezdzN7c5cK5nN9837/njf99585jvv+2PWoPDnCYEQKE8wEYVAhUB5RMCjWDiiQqA8IuBRLBxRIVAeEfAoFo6oECiPCHgUC0dUCJRHBDyKhSMqBGoyAu2VT6sR9fxdy86qDKS6D+V70uU7exa0d2v+9j4tgHoyuyJaGUx9Z97I/GPYppdMMYd51PxPJZf8wYHNiTf5e8utaTstgLqw49hWYvpm4xYOCNFz9TzfEjl21p/q+VN7PeVAVXPpT7DIdYBht0SNxfFM8aLOTLHLYONtqNsOel85l/wy+ClNcwbUgYHurupgcsVkEqJ1igD42s7bh1/UvNKS3uFXzAh/UfNM/PXJ/bSs8Uzb54ICB6qavfS8Si79bMQw9gnzk5OJSFJ6oxhFf1U+kRJ3FA6i/G9QQpz6GlSq5FIHqpuSSyATaAocKImMfAVgXIy7+CcJ7XQkkl60Oyfhfsc+qovoFXRKiEnfAg80BQ4UvF8MImb5dryvuMKRMqUhlXGieF/hnrhLPxG+xeoj3GnxAC+BAyXEUfXfFD6h3Fcy5LjqY6J5yoOkwIEK0vm51B0C5RHtwIGCAVN9MRghGZmDg+mrMVNtw0p8hxOVB9M3Q2xKquZSm2z5cj61WgUiZFq6BbOFloMk3EeQ6qfqZjY/gNqVxHSlEzHTKrRPSQDjVluehT45RSDgijkHqjNTWidkXMEiVznR8dETH3O6Z6zUu2z546MndSXvJBZYXeBAmYRtLtw3BeMBXFNnZvipWF9phxN1Zff/V2Umk67UbXlbpkaG5T/TuG4K6GcZCki3pRYGgBWRHaOsSp8ub+gYVR5MfQnBXFwpn9rshGMln9w91ief/L6TTJB1eODBqD+w4bKzdZYSrgdebDNG1dKMI2vCK6ryYyQI4XZBoAX5mmlEwDStBIiP68GfFoKgQIA6kuu+wOg4uQuR40rbaQDWoflYpnhfPFPkaWityk0myF8OavQr3Ga1GyQWr1+u6RiZv1tt14v+Xn0HqpJPXzJCxjATvdNfV2fWpjbV9uGhlO+2fQXqUL77KhLZhVs6F2vAp3AQd44IPYRyIEnMsddxu9oilqdh6NyaSU9bvqDgV/INKMSjNaYYT8Cx+UT8YDxTugIHcUdhYMqsV871vFcP3pxof7brTHL44YPD+ba8LRM1amOvntqK95beI/UHc6YJX6r55OccVLVUhftoqV9Tp3IutRHx6EdWpUg+nil82so7XCqD6buZzD+Lw0Gc1r05Ou/XDt0IHxye03YlyDzqJKN1nX3Fm0ToLs2L8AOVfKpP8+1S20CVB5KXIjb0qyNwbHW8r5TRvE24sbGnrnUYXn8A344wvNOJmMXxVcVLtsWWh51fQAdNePW0OEYA63ZmvtWqEBrAg3y3lW/j0jZQbBg5tS8kt3X2FR7Q/ETCtgM4jtck+gpPxDPFa9wO42K9pZ+MS4/nYn3F9XYf2w4b0qR7XJoo1lu4H41f1Tomzipvh9oC6tBQ6nIE7ffDgcPYw90L7p6EPlLG1xSNNe5C3lp0CaC6TGLHfaGtBUuRzQgJL8HHDx0cSPfY9a3wtoAya1R3VPhXbsYF75K24f27iYnvQax5uZxP3qF1rRAWlhksAV5SXSRcX09Nr8iKZ9gVXj+92PStbQGFp5Ww1Buyz+KTLtWBnsvwNO2d/h4iekxFWHgIYM36qKSaS34W/QdBJCQKwF7Ng+LlXMo5Dpm0B+1I0ta5entAIRTAA2IS22EtWqRDXQzzjyi8hYi3Ii4lQQCNrQ8JAOtOmuVPiDdZXTCz4lW/Hvq6WUgDe4yJtuG1TlvtEy7CZAHFTPWHOqFtNtl2gTpDjdUMo+lopDKQ6jYM2Ya2BSTy83imcCPyVooY8qCVIVrU4J5YNbtCbZ2vwkL0U+VKCPKfaoC1AK/1NrWt9WMkclTzIuy4PtM2L9QuUM42DNKZ6xy8dvdjufAZmvCrmTTQKP6lwT2xWHbH6xAsgYjZyCu3ScFCXtdxCzlCP0be99QmUHiWji5xPxOvw+q8vpZpyJRzaV0+WBOAYZrW5/JGkydmmvz5uqB8HEFdgakXcY1nil/AAcN6k2QDimMJWxsMwLFiy5k2gRJ2shzPFH4XyxTuntimICGW1bcUQtcu6d9TnNjuJZ/oL2CzLdc1ZNdUc6mm0dPZW9oE+n2j3WI8ajr6aDXO4tImUHS22pJGHNC8E1WHepZPBAkLx986yXmpi2VKj2HKu1ZlhWh1eaj7Is27kVHreE3bMEuemhiFGUYD63lw4tWl64v/AHdNNRmxvhbj0e5vByTbQEOHNdOKyLRfiWPZZ/6Gfv+C7QteyPa8FfmWUssjCjNMfeNJdF9LltvuxJbvXOsABtMrg8APVWJetNYUDrTOK1nGvArbcpVcUv89gtlMKp2ZYlPwtGWcOF6Vrkou5X5ePos2IrlYbUhkBGo1507R+WfoTHtEiG+u5tJfc5d0b2kJKBL+sKpkg1crn4mk5jY7ztRz5vYOjpgzSS36xq7jONRbo3KIVR9UPltqCSiuRVeZXHtXbH1xpxeD0Ujk7Q25h+PTn5c3zsSnPVO3ZLDSfkR1jtZI/8Ko2WkJh3qPi2lcYo7WXM/KplPQElAaIBO9ex33d5ONVbGiRsDdUq/nsRV1vdzG1ZSfaW9m2qI2ND8TdfYPP5vI7n11Jjmn9paAclLkVKff8CR69GW0xUTooTjWV8j7kvDV+DeEPSQRJdSG2kI+sDRroLx4Us6nVlZy6efxtO+F/EIS2im1mnWIhrJ/iU+uVd1QuFBtqc2Dg+mrUfY9+QpUJZdaXM6nH0XoxoZYlsHbw5idbsS6Z0WrQx46XFO8d9/fVbfaAGAvgi8zWLaXc8lH1BfXji00+AZUJZ/WE4JDOPq1thhYu2zg0QXLsd/b2oJfs+qiNri2YBmzZLUjE38U/BC+DN0A7kvyDSgm8x0Nj35ZG6ktimWKA40df6M6WKa2cN6+0aTohbD0MIjEkKXK/SDfgDoRPf5dPNFUPFNctXTjXpxT++He7HUkMs8cgQ83qC+vj4x8b/YanHv4BtTydS+8hidqnRc5m5rbWvWly+W/Vq144htQrRj/f+oTAuXxaYVAhUB5RMCjWDiiQqA8IuBRLBxRIVAeEXAXa2oJR1QTHO6FECh3bJpaQqCa4HAvhEC5Y9PUEgLVBId74X8AAAD//xVfTSQAAAAGSURBVAMAJksS0cbUazwAAAAASUVORK5CYII=&quot; crossorigin=&quot;anonymous&quot;&gt;" style="text;whiteSpace=wrap;html=1;labelBackgroundColor=none;fontColor=#5C5C5C;rounded=1;sketch=1;curveFitting=1;jiggle=2;" vertex="1" parent="1">
          <mxGeometry x="740" y="270" width="30" height="40" as="geometry" />
        </mxCell>
        <mxCell id="tKPjn2sMKfOxzuckoDCL-14" style="edgeStyle=orthogonalEdgeStyle;rounded=1;orthogonalLoop=1;jettySize=auto;html=1;exitX=0.5;exitY=1;exitDx=0;exitDy=0;labelBackgroundColor=none;strokeColor=#006658;fontColor=default;sketch=1;curveFitting=1;jiggle=2;" edge="1" parent="1" source="tKPjn2sMKfOxzuckoDCL-9" target="tKPjn2sMKfOxzuckoDCL-9">
          <mxGeometry relative="1" as="geometry" />
        </mxCell>
        <mxCell id="tKPjn2sMKfOxzuckoDCL-15" value="" style="endArrow=none;html=1;rounded=1;labelBackgroundColor=none;strokeColor=#006658;fontColor=default;sketch=1;curveFitting=1;jiggle=2;" edge="1" parent="1">
          <mxGeometry width="50" height="50" relative="1" as="geometry">
            <mxPoint x="50" y="240" as="sourcePoint" />
            <mxPoint x="800" y="240" as="targetPoint" />
            <Array as="points" />
          </mxGeometry>
        </mxCell>
        <mxCell id="tKPjn2sMKfOxzuckoDCL-18" value="" style="endArrow=classic;html=1;rounded=1;entryX=1.667;entryY=1.75;entryDx=0;entryDy=0;entryPerimeter=0;labelBackgroundColor=none;strokeColor=#006658;fontColor=default;sketch=1;curveFitting=1;jiggle=2;" edge="1" parent="1" target="tKPjn2sMKfOxzuckoDCL-8">
          <mxGeometry width="50" height="50" relative="1" as="geometry">
            <mxPoint x="170" y="240" as="sourcePoint" />
            <mxPoint x="440" y="230" as="targetPoint" />
          </mxGeometry>
        </mxCell>
        <mxCell id="tKPjn2sMKfOxzuckoDCL-20" value="" style="endArrow=classic;html=1;rounded=1;entryX=1;entryY=0.25;entryDx=0;entryDy=0;labelBackgroundColor=none;strokeColor=#006658;fontColor=default;sketch=1;curveFitting=1;jiggle=2;" edge="1" parent="1" target="tKPjn2sMKfOxzuckoDCL-9">
          <mxGeometry width="50" height="50" relative="1" as="geometry">
            <mxPoint x="220" y="240" as="sourcePoint" />
            <mxPoint x="440" y="230" as="targetPoint" />
          </mxGeometry>
        </mxCell>
        <mxCell id="tKPjn2sMKfOxzuckoDCL-23" value="" style="endArrow=classic;html=1;rounded=1;labelBackgroundColor=none;strokeColor=#006658;fontColor=default;sketch=1;curveFitting=1;jiggle=2;" edge="1" parent="1">
          <mxGeometry width="50" height="50" relative="1" as="geometry">
            <mxPoint x="410" y="240" as="sourcePoint" />
            <mxPoint x="410" y="270" as="targetPoint" />
          </mxGeometry>
        </mxCell>
        <mxCell id="tKPjn2sMKfOxzuckoDCL-24" value="" style="endArrow=classic;html=1;rounded=1;entryX=0.327;entryY=0.7;entryDx=0;entryDy=0;entryPerimeter=0;labelBackgroundColor=none;strokeColor=#006658;fontColor=default;sketch=1;curveFitting=1;jiggle=2;" edge="1" parent="1" target="tKPjn2sMKfOxzuckoDCL-7">
          <mxGeometry width="50" height="50" relative="1" as="geometry">
            <mxPoint x="310" y="240" as="sourcePoint" />
            <mxPoint x="330" y="430" as="targetPoint" />
          </mxGeometry>
        </mxCell>
        <mxCell id="tKPjn2sMKfOxzuckoDCL-25" value="" style="endArrow=classic;html=1;rounded=1;labelBackgroundColor=none;strokeColor=#006658;fontColor=default;sketch=1;curveFitting=1;jiggle=2;" edge="1" parent="1">
          <mxGeometry width="50" height="50" relative="1" as="geometry">
            <mxPoint x="590" y="240" as="sourcePoint" />
            <mxPoint x="590" y="270" as="targetPoint" />
          </mxGeometry>
        </mxCell>
        <mxCell id="tKPjn2sMKfOxzuckoDCL-26" value="" style="endArrow=classic;html=1;rounded=1;labelBackgroundColor=none;strokeColor=#006658;fontColor=default;sketch=1;curveFitting=1;jiggle=2;" edge="1" parent="1">
          <mxGeometry width="50" height="50" relative="1" as="geometry">
            <mxPoint x="780" y="240" as="sourcePoint" />
            <mxPoint x="780" y="270" as="targetPoint" />
          </mxGeometry>
        </mxCell>
        <mxCell id="tKPjn2sMKfOxzuckoDCL-27" value="" style="endArrow=classic;html=1;rounded=1;entryX=0.229;entryY=0.412;entryDx=0;entryDy=0;entryPerimeter=0;labelBackgroundColor=none;strokeColor=#006658;fontColor=default;sketch=1;curveFitting=1;jiggle=2;" edge="1" parent="1" target="tKPjn2sMKfOxzuckoDCL-1">
          <mxGeometry width="50" height="50" relative="1" as="geometry">
            <mxPoint x="500" y="240" as="sourcePoint" />
            <mxPoint x="490" y="240" as="targetPoint" />
          </mxGeometry>
        </mxCell>
        <mxCell id="tKPjn2sMKfOxzuckoDCL-28" value="" style="endArrow=classic;html=1;rounded=1;entryX=1.667;entryY=2;entryDx=0;entryDy=0;entryPerimeter=0;labelBackgroundColor=none;strokeColor=#006658;fontColor=default;sketch=1;curveFitting=1;jiggle=2;" edge="1" parent="1" target="tKPjn2sMKfOxzuckoDCL-10">
          <mxGeometry width="50" height="50" relative="1" as="geometry">
            <mxPoint x="700" y="240" as="sourcePoint" />
            <mxPoint x="600" y="470" as="targetPoint" />
          </mxGeometry>
        </mxCell>
        <mxCell id="tKPjn2sMKfOxzuckoDCL-29" value="&lt;i&gt;&lt;b&gt;(1)User&amp;nbsp;&lt;/b&gt;&lt;/i&gt;&lt;div&gt;&lt;i&gt;&lt;b&gt;Onboarding&lt;/b&gt;&lt;/i&gt;&lt;/div&gt;" style="text;html=1;align=center;verticalAlign=middle;resizable=0;points=[];autosize=1;strokeColor=none;fillColor=none;labelBackgroundColor=none;fontColor=#5C5C5C;rounded=1;sketch=1;curveFitting=1;jiggle=2;" vertex="1" parent="1">
          <mxGeometry x="60" y="120" width="90" height="40" as="geometry" />
        </mxCell>
        <mxCell id="tKPjn2sMKfOxzuckoDCL-30" value="&lt;b&gt;&lt;i&gt;(2)Retaurent&lt;/i&gt;&lt;/b&gt;&lt;div&gt;&lt;b&gt;&lt;i&gt;Discovery&lt;/i&gt;&lt;/b&gt;&lt;/div&gt;" style="text;html=1;align=center;verticalAlign=middle;resizable=0;points=[];autosize=1;strokeColor=none;fillColor=none;labelBackgroundColor=none;fontColor=#5C5C5C;rounded=1;sketch=1;curveFitting=1;jiggle=2;" vertex="1" parent="1">
          <mxGeometry x="110" y="343" width="90" height="40" as="geometry" />
        </mxCell>
        <mxCell id="tKPjn2sMKfOxzuckoDCL-33" value="&lt;i&gt;&lt;b&gt;(3)Order&amp;nbsp;&lt;/b&gt;&lt;/i&gt;&lt;div&gt;&lt;i&gt;&lt;b&gt;processing&lt;/b&gt;&lt;/i&gt;&lt;/div&gt;" style="text;html=1;align=center;verticalAlign=middle;resizable=0;points=[];autosize=1;strokeColor=none;fillColor=none;labelBackgroundColor=none;fontColor=#5C5C5C;rounded=1;sketch=1;curveFitting=1;jiggle=2;" vertex="1" parent="1">
          <mxGeometry x="205" y="113" width="90" height="40" as="geometry" />
        </mxCell>
        <mxCell id="tKPjn2sMKfOxzuckoDCL-34" value="&lt;i&gt;&lt;b&gt;(4)Order&lt;/b&gt;&lt;/i&gt;&lt;div&gt;&lt;i&gt;&lt;b&gt;FulFillmen&lt;/b&gt;&lt;/i&gt;t&lt;/div&gt;" style="text;html=1;align=center;verticalAlign=middle;resizable=0;points=[];autosize=1;strokeColor=none;fillColor=none;labelBackgroundColor=none;fontColor=#5C5C5C;rounded=1;sketch=1;curveFitting=1;jiggle=2;" vertex="1" parent="1">
          <mxGeometry x="305" y="343" width="90" height="40" as="geometry" />
        </mxCell>
        <mxCell id="tKPjn2sMKfOxzuckoDCL-35" value="&lt;b&gt;&lt;i&gt;(5)Delivery&lt;/i&gt;&lt;/b&gt;&lt;div&gt;&lt;b&gt;&lt;i&gt;&amp;amp; Post-Orders&lt;/i&gt;&lt;/b&gt;&lt;/div&gt;" style="text;html=1;align=center;verticalAlign=middle;resizable=0;points=[];autosize=1;strokeColor=none;fillColor=none;labelBackgroundColor=none;fontColor=#5C5C5C;rounded=1;sketch=1;curveFitting=1;jiggle=2;" vertex="1" parent="1">
          <mxGeometry x="380" y="113" width="100" height="40" as="geometry" />
        </mxCell>
        <mxCell id="tKPjn2sMKfOxzuckoDCL-38" value="&lt;b&gt;&lt;i&gt;(8)Bussiness Side&lt;/i&gt;&lt;/b&gt;" style="text;html=1;align=center;verticalAlign=middle;resizable=0;points=[];autosize=1;strokeColor=none;fillColor=none;labelBackgroundColor=none;fontColor=#5C5C5C;rounded=1;sketch=1;curveFitting=1;jiggle=2;" vertex="1" parent="1">
          <mxGeometry x="668" y="348" width="130" height="30" as="geometry" />
        </mxCell>
        <mxCell id="tKPjn2sMKfOxzuckoDCL-39" value="&lt;b&gt;&lt;i&gt;(7)Support&lt;/i&gt;&lt;/b&gt;&lt;div&gt;&lt;b&gt;&lt;i&gt;&amp;amp;Feedback&lt;/i&gt;&lt;/b&gt;&lt;/div&gt;" style="text;html=1;align=center;verticalAlign=middle;resizable=0;points=[];autosize=1;strokeColor=none;fillColor=none;labelBackgroundColor=none;fontColor=#5C5C5C;rounded=1;sketch=1;curveFitting=1;jiggle=2;" vertex="1" parent="1">
          <mxGeometry x="595" y="103" width="90" height="40" as="geometry" />
        </mxCell>
        <mxCell id="tKPjn2sMKfOxzuckoDCL-40" value="&lt;b&gt;&lt;i&gt;(6)User Engagement&lt;/i&gt;&lt;/b&gt;&lt;div&gt;&lt;b&gt;&lt;i&gt;&amp;amp;Retention&lt;/i&gt;&lt;/b&gt;&lt;/div&gt;" style="text;html=1;align=center;verticalAlign=middle;resizable=0;points=[];autosize=1;strokeColor=none;fillColor=none;labelBackgroundColor=none;fontColor=#5C5C5C;rounded=1;sketch=1;curveFitting=1;jiggle=2;" vertex="1" parent="1">
          <mxGeometry x="480" y="343" width="140" height="40" as="geometry" />
        </mxCell>
        <mxCell id="tKPjn2sMKfOxzuckoDCL-41" value="Actor" style="shape=umlActor;verticalLabelPosition=bottom;verticalAlign=top;html=1;outlineConnect=0;sketch=1;hachureGap=4;jiggle=2;curveFitting=1;fontFamily=Architects Daughter;fontSource=https%3A%2F%2Ffonts.googleapis.com%2Fcss%3Ffamily%3DArchitects%2BDaughter;" vertex="1" parent="1">
          <mxGeometry x="20" y="200" width="30" height="60" as="geometry" />
        </mxCell>
      </root>
    </mxGraphModel>
  </diagram>
  <diagram name="Page-1" id="rKXmd2Rjas5U0SZbsShw">
    <mxGraphModel dx="1042" dy="510" grid="1" gridSize="10" guides="1" tooltips="1" connect="1" arrows="1" fold="1" page="1" pageScale="1" pageWidth="827" pageHeight="1169" math="0" shadow="0">
      <root>
        <mxCell id="0" />
        <mxCell id="1" parent="0" />
        <mxCell id="fa7B6No9CHvykT1VSqGt-1" value="Deploy" style="ellipse;whiteSpace=wrap;html=1;fillColor=#1ba1e2;fontColor=#ffffff;strokeColor=#006EAF;" parent="1" vertex="1">
          <mxGeometry x="140" y="390" width="120" height="80" as="geometry" />
        </mxCell>
        <mxCell id="fa7B6No9CHvykT1VSqGt-2" value="Operate" style="ellipse;whiteSpace=wrap;html=1;fillColor=#60a917;fontColor=#ffffff;strokeColor=#2D7600;" parent="1" vertex="1">
          <mxGeometry x="30" y="230" width="120" height="80" as="geometry" />
        </mxCell>
        <mxCell id="fa7B6No9CHvykT1VSqGt-4" value="Monitor" style="ellipse;whiteSpace=wrap;html=1;fillColor=#1ba1e2;fontColor=#ffffff;strokeColor=#006EAF;" parent="1" vertex="1">
          <mxGeometry x="70" y="100" width="120" height="80" as="geometry" />
        </mxCell>
        <mxCell id="fa7B6No9CHvykT1VSqGt-5" value="Plan" style="ellipse;whiteSpace=wrap;html=1;fillColor=#60a917;fontColor=#ffffff;strokeColor=#2D7600;" parent="1" vertex="1">
          <mxGeometry x="230" y="10" width="120" height="80" as="geometry" />
        </mxCell>
        <mxCell id="fa7B6No9CHvykT1VSqGt-6" value="Build" style="ellipse;whiteSpace=wrap;html=1;fillColor=#60a917;fontColor=#ffffff;strokeColor=#2D7600;" parent="1" vertex="1">
          <mxGeometry x="560" y="150" width="120" height="80" as="geometry" />
        </mxCell>
        <mxCell id="fa7B6No9CHvykT1VSqGt-7" value="Release" style="ellipse;whiteSpace=wrap;html=1;fillColor=#60a917;fontColor=#ffffff;strokeColor=#2D7600;" parent="1" vertex="1">
          <mxGeometry x="350" y="400" width="120" height="80" as="geometry" />
        </mxCell>
        <mxCell id="fa7B6No9CHvykT1VSqGt-8" value="Test" style="ellipse;whiteSpace=wrap;html=1;fillColor=#0050ef;fontColor=#ffffff;strokeColor=#001DBC;" parent="1" vertex="1">
          <mxGeometry x="540" y="320" width="120" height="80" as="geometry" />
        </mxCell>
        <mxCell id="fa7B6No9CHvykT1VSqGt-9" value="Develop" style="ellipse;whiteSpace=wrap;html=1;fillColor=#1ba1e2;fontColor=#ffffff;strokeColor=#006EAF;" parent="1" vertex="1">
          <mxGeometry x="460" y="30" width="120" height="80" as="geometry" />
        </mxCell>
        <mxCell id="fa7B6No9CHvykT1VSqGt-10" value="Devops Life Cycle" style="ellipse;whiteSpace=wrap;html=1;fillColor=#fad7ac;strokeColor=#b46504;" parent="1" vertex="1">
          <mxGeometry x="293.5" y="190" width="120" height="80" as="geometry" />
        </mxCell>
        <mxCell id="fa7B6No9CHvykT1VSqGt-11" value="" style="endArrow=classic;html=1;rounded=0;" parent="1" source="fa7B6No9CHvykT1VSqGt-10" edge="1">
          <mxGeometry width="50" height="50" relative="1" as="geometry">
            <mxPoint x="390" y="260" as="sourcePoint" />
            <mxPoint x="490" y="100" as="targetPoint" />
            <Array as="points">
              <mxPoint x="490" y="100" />
            </Array>
          </mxGeometry>
        </mxCell>
        <mxCell id="fa7B6No9CHvykT1VSqGt-12" value="" style="endArrow=classic;html=1;rounded=0;entryX=0.5;entryY=0;entryDx=0;entryDy=0;exitX=0.564;exitY=1.043;exitDx=0;exitDy=0;exitPerimeter=0;" parent="1" source="fa7B6No9CHvykT1VSqGt-10" target="fa7B6No9CHvykT1VSqGt-7" edge="1">
          <mxGeometry width="50" height="50" relative="1" as="geometry">
            <mxPoint x="390" y="260" as="sourcePoint" />
            <mxPoint x="440" y="210" as="targetPoint" />
          </mxGeometry>
        </mxCell>
        <mxCell id="fa7B6No9CHvykT1VSqGt-14" value="" style="endArrow=classic;html=1;rounded=0;exitX=0.938;exitY=0.713;exitDx=0;exitDy=0;exitPerimeter=0;" parent="1" source="fa7B6No9CHvykT1VSqGt-10" target="fa7B6No9CHvykT1VSqGt-8" edge="1">
          <mxGeometry width="50" height="50" relative="1" as="geometry">
            <mxPoint x="390" y="260" as="sourcePoint" />
            <mxPoint x="440" y="210" as="targetPoint" />
          </mxGeometry>
        </mxCell>
        <mxCell id="fa7B6No9CHvykT1VSqGt-15" value="" style="endArrow=classic;html=1;rounded=0;entryX=0;entryY=0.5;entryDx=0;entryDy=0;exitX=1.011;exitY=0.373;exitDx=0;exitDy=0;exitPerimeter=0;" parent="1" source="fa7B6No9CHvykT1VSqGt-10" target="fa7B6No9CHvykT1VSqGt-6" edge="1">
          <mxGeometry width="50" height="50" relative="1" as="geometry">
            <mxPoint x="390" y="260" as="sourcePoint" />
            <mxPoint x="440" y="210" as="targetPoint" />
          </mxGeometry>
        </mxCell>
        <mxCell id="fa7B6No9CHvykT1VSqGt-16" value="" style="endArrow=classic;html=1;rounded=0;exitX=0.191;exitY=0.953;exitDx=0;exitDy=0;exitPerimeter=0;entryX=0.657;entryY=0.013;entryDx=0;entryDy=0;entryPerimeter=0;" parent="1" source="fa7B6No9CHvykT1VSqGt-10" target="fa7B6No9CHvykT1VSqGt-1" edge="1">
          <mxGeometry width="50" height="50" relative="1" as="geometry">
            <mxPoint x="390" y="260" as="sourcePoint" />
            <mxPoint x="440" y="210" as="targetPoint" />
          </mxGeometry>
        </mxCell>
        <mxCell id="fa7B6No9CHvykT1VSqGt-17" value="" style="endArrow=classic;html=1;rounded=0;exitX=0.044;exitY=0.723;exitDx=0;exitDy=0;exitPerimeter=0;entryX=1;entryY=0.5;entryDx=0;entryDy=0;" parent="1" source="fa7B6No9CHvykT1VSqGt-10" target="fa7B6No9CHvykT1VSqGt-2" edge="1">
          <mxGeometry width="50" height="50" relative="1" as="geometry">
            <mxPoint x="390" y="260" as="sourcePoint" />
            <mxPoint x="440" y="210" as="targetPoint" />
          </mxGeometry>
        </mxCell>
        <mxCell id="fa7B6No9CHvykT1VSqGt-18" value="" style="endArrow=classic;html=1;rounded=0;exitX=-0.002;exitY=0.323;exitDx=0;exitDy=0;exitPerimeter=0;entryX=0.953;entryY=0.638;entryDx=0;entryDy=0;entryPerimeter=0;" parent="1" source="fa7B6No9CHvykT1VSqGt-10" target="fa7B6No9CHvykT1VSqGt-4" edge="1">
          <mxGeometry width="50" height="50" relative="1" as="geometry">
            <mxPoint x="390" y="260" as="sourcePoint" />
            <mxPoint x="440" y="210" as="targetPoint" />
          </mxGeometry>
        </mxCell>
        <mxCell id="fa7B6No9CHvykT1VSqGt-19" value="" style="endArrow=classic;html=1;rounded=0;exitX=0.411;exitY=0.003;exitDx=0;exitDy=0;exitPerimeter=0;entryX=0.6;entryY=0.973;entryDx=0;entryDy=0;entryPerimeter=0;" parent="1" source="fa7B6No9CHvykT1VSqGt-10" target="fa7B6No9CHvykT1VSqGt-5" edge="1">
          <mxGeometry width="50" height="50" relative="1" as="geometry">
            <mxPoint x="390" y="260" as="sourcePoint" />
            <mxPoint x="440" y="210" as="targetPoint" />
          </mxGeometry>
        </mxCell>
        <mxCell id="fa7B6No9CHvykT1VSqGt-20" value="LIFE CYCLE OF DEVEOPS" style="text;html=1;align=center;verticalAlign=middle;resizable=0;points=[];autosize=1;fontSize=33;" parent="1" vertex="1">
          <mxGeometry x="145" y="530" width="440" height="50" as="geometry" />
        </mxCell>
      </root>
    </mxGraphModel>
  </diagram>
  <diagram id="6ww75N15V4KTg50hsxdy" name="Page-2">
    <mxGraphModel dx="1226" dy="600" grid="1" gridSize="10" guides="1" tooltips="1" connect="1" arrows="1" fold="1" page="1" pageScale="1" pageWidth="827" pageHeight="1169" math="0" shadow="0">
      <root>
        <mxCell id="0" />
        <mxCell id="1" parent="0" />
        <mxCell id="ibShv_OJYC_zXzg6t3L3-1" value="&lt;font style=&quot;font-size: 19px;&quot;&gt;STUDENT INFORMATION SYSTEM&lt;/font&gt;" style="rounded=0;whiteSpace=wrap;html=1;fillColor=#f8cecc;strokeColor=#b85450;gradientColor=#ea6b66;" vertex="1" parent="1">
          <mxGeometry x="220" y="80" width="370" height="40" as="geometry" />
        </mxCell>
        <mxCell id="ibShv_OJYC_zXzg6t3L3-2" value="&lt;font style=&quot;font-size: 15px;&quot;&gt;ADMIN&lt;/font&gt;" style="rounded=1;whiteSpace=wrap;html=1;fillColor=#dae8fc;strokeColor=#6c8ebf;gradientColor=#7ea6e0;" vertex="1" parent="1">
          <mxGeometry x="90" y="170" width="120" height="40" as="geometry" />
        </mxCell>
        <mxCell id="ibShv_OJYC_zXzg6t3L3-5" value="&lt;font style=&quot;font-size: 14px;&quot;&gt;Manage&lt;/font&gt;&lt;div&gt;&lt;font style=&quot;font-size: 14px;&quot;&gt;modules&lt;/font&gt;&lt;/div&gt;" style="ellipse;whiteSpace=wrap;html=1;aspect=fixed;fillColor=#dae8fc;gradientColor=#7ea6e0;strokeColor=#6c8ebf;" vertex="1" parent="1">
          <mxGeometry x="460" y="350" width="80" height="80" as="geometry" />
        </mxCell>
        <mxCell id="ibShv_OJYC_zXzg6t3L3-6" value="&lt;font style=&quot;font-size: 14px;&quot;&gt;Check credentials&lt;/font&gt;" style="ellipse;whiteSpace=wrap;html=1;aspect=fixed;fillColor=#dae8fc;gradientColor=#7ea6e0;strokeColor=#6c8ebf;" vertex="1" parent="1">
          <mxGeometry x="300" y="350" width="80" height="80" as="geometry" />
        </mxCell>
        <mxCell id="ibShv_OJYC_zXzg6t3L3-7" value="Check roles&amp;nbsp;&lt;div&gt;of access&lt;/div&gt;" style="ellipse;whiteSpace=wrap;html=1;aspect=fixed;fillColor=#dae8fc;gradientColor=#7ea6e0;strokeColor=#6c8ebf;" vertex="1" parent="1">
          <mxGeometry x="460" y="160" width="80" height="80" as="geometry" />
        </mxCell>
        <mxCell id="ibShv_OJYC_zXzg6t3L3-8" value="Login to&lt;div&gt;System&lt;/div&gt;" style="ellipse;whiteSpace=wrap;html=1;aspect=fixed;fillColor=#dae8fc;gradientColor=#7ea6e0;strokeColor=#6c8ebf;" vertex="1" parent="1">
          <mxGeometry x="300" y="150" width="80" height="80" as="geometry" />
        </mxCell>
        <mxCell id="ibShv_OJYC_zXzg6t3L3-9" value="&lt;font style=&quot;font-size: 14px;&quot;&gt;Send Email&lt;/font&gt;&lt;div&gt;&lt;font style=&quot;font-size: 14px;&quot;&gt;to user&lt;/font&gt;&lt;/div&gt;" style="ellipse;whiteSpace=wrap;html=1;aspect=fixed;fillColor=#dae8fc;gradientColor=#7ea6e0;strokeColor=#6c8ebf;" vertex="1" parent="1">
          <mxGeometry x="110" y="410" width="80" height="80" as="geometry" />
        </mxCell>
        <mxCell id="ibShv_OJYC_zXzg6t3L3-10" value="&lt;font style=&quot;font-size: 14px;&quot;&gt;Forget&amp;nbsp;&lt;/font&gt;&lt;div&gt;&lt;font style=&quot;font-size: 14px;&quot;&gt;password&lt;/font&gt;&lt;/div&gt;" style="ellipse;whiteSpace=wrap;html=1;aspect=fixed;fillColor=#dae8fc;gradientColor=#7ea6e0;strokeColor=#6c8ebf;" vertex="1" parent="1">
          <mxGeometry x="110" y="270" width="80" height="80" as="geometry" />
        </mxCell>
        <mxCell id="ibShv_OJYC_zXzg6t3L3-11" value="&lt;font style=&quot;font-size: 14px;&quot;&gt;Manage report&lt;/font&gt;" style="rounded=1;whiteSpace=wrap;html=1;fillColor=#dae8fc;gradientColor=#7ea6e0;strokeColor=#6c8ebf;" vertex="1" parent="1">
          <mxGeometry x="610" y="500" width="170" height="40" as="geometry" />
        </mxCell>
        <mxCell id="ibShv_OJYC_zXzg6t3L3-12" value="&lt;font style=&quot;font-size: 14px;&quot;&gt;Manage teacher&lt;/font&gt;&lt;div&gt;&lt;font style=&quot;font-size: 14px;&quot;&gt;profiles&lt;/font&gt;&lt;/div&gt;" style="rounded=1;whiteSpace=wrap;html=1;fillColor=#dae8fc;gradientColor=#7ea6e0;strokeColor=#6c8ebf;" vertex="1" parent="1">
          <mxGeometry x="610" y="440" width="170" height="40" as="geometry" />
        </mxCell>
        <mxCell id="ibShv_OJYC_zXzg6t3L3-13" value="&lt;font style=&quot;font-size: 14px;&quot;&gt;Manage fee&lt;/font&gt;&lt;div&gt;&lt;font style=&quot;font-size: 14px;&quot;&gt;Details&lt;/font&gt;&lt;/div&gt;" style="rounded=1;whiteSpace=wrap;html=1;fillColor=#dae8fc;gradientColor=#7ea6e0;strokeColor=#6c8ebf;" vertex="1" parent="1">
          <mxGeometry x="610" y="380" width="170" height="40" as="geometry" />
        </mxCell>
        <mxCell id="ibShv_OJYC_zXzg6t3L3-14" value="&lt;font style=&quot;font-size: 14px;&quot;&gt;Manage student&amp;nbsp;&lt;/font&gt;&lt;div&gt;&lt;font style=&quot;font-size: 14px;&quot;&gt;Details&lt;/font&gt;&lt;/div&gt;" style="rounded=1;whiteSpace=wrap;html=1;fillColor=#dae8fc;gradientColor=#7ea6e0;strokeColor=#6c8ebf;" vertex="1" parent="1">
          <mxGeometry x="610" y="320" width="170" height="40" as="geometry" />
        </mxCell>
        <mxCell id="ibShv_OJYC_zXzg6t3L3-15" value="&lt;font style=&quot;font-size: 14px;&quot;&gt;Manage class&lt;/font&gt;&lt;div&gt;&lt;font style=&quot;font-size: 14px;&quot;&gt;Details&lt;/font&gt;&lt;/div&gt;" style="rounded=1;whiteSpace=wrap;html=1;fillColor=#dae8fc;gradientColor=#7ea6e0;strokeColor=#6c8ebf;" vertex="1" parent="1">
          <mxGeometry x="610" y="250" width="170" height="40" as="geometry" />
        </mxCell>
        <mxCell id="ibShv_OJYC_zXzg6t3L3-16" value="&lt;font style=&quot;font-size: 14px;&quot;&gt;manage attendance&lt;/font&gt;&lt;div&gt;&lt;font style=&quot;font-size: 14px;&quot;&gt;Details&lt;/font&gt;&lt;/div&gt;" style="rounded=1;whiteSpace=wrap;html=1;fillColor=#dae8fc;gradientColor=#7ea6e0;strokeColor=#6c8ebf;" vertex="1" parent="1">
          <mxGeometry x="610" y="190" width="170" height="40" as="geometry" />
        </mxCell>
        <mxCell id="ibShv_OJYC_zXzg6t3L3-17" value="&lt;font style=&quot;font-size: 14px;&quot;&gt;Manage Timetable&amp;nbsp;&lt;/font&gt;&lt;div&gt;&lt;font style=&quot;font-size: 14px;&quot;&gt;Details&lt;/font&gt;&lt;/div&gt;" style="rounded=1;whiteSpace=wrap;html=1;fillColor=#dae8fc;gradientColor=#7ea6e0;strokeColor=#6c8ebf;" vertex="1" parent="1">
          <mxGeometry x="610" y="130" width="170" height="40" as="geometry" />
        </mxCell>
        <mxCell id="ibShv_OJYC_zXzg6t3L3-20" value="&lt;font style=&quot;font-size: 14px;&quot;&gt;Manage System&lt;/font&gt;&lt;div&gt;&lt;font style=&quot;font-size: 14px;&quot;&gt;Admins&lt;/font&gt;&lt;/div&gt;" style="rounded=1;whiteSpace=wrap;html=1;fillColor=#dae8fc;gradientColor=#7ea6e0;strokeColor=#6c8ebf;" vertex="1" parent="1">
          <mxGeometry x="90" y="540" width="120" height="60" as="geometry" />
        </mxCell>
        <mxCell id="ibShv_OJYC_zXzg6t3L3-21" value="&lt;font style=&quot;font-size: 14px;&quot;&gt;Manage roles&amp;nbsp;&lt;/font&gt;&lt;div&gt;&lt;font style=&quot;font-size: 14px;&quot;&gt;of user&lt;/font&gt;&lt;/div&gt;" style="rounded=1;whiteSpace=wrap;html=1;fillColor=#dae8fc;gradientColor=#7ea6e0;strokeColor=#6c8ebf;" vertex="1" parent="1">
          <mxGeometry x="260" y="540" width="120" height="60" as="geometry" />
        </mxCell>
        <mxCell id="ibShv_OJYC_zXzg6t3L3-22" value="&lt;font style=&quot;font-size: 14px;&quot;&gt;Manage user&amp;nbsp;&lt;/font&gt;&lt;div&gt;&lt;font style=&quot;font-size: 14px;&quot;&gt;permission&lt;/font&gt;&lt;/div&gt;" style="rounded=1;whiteSpace=wrap;html=1;fillColor=#dae8fc;gradientColor=#7ea6e0;strokeColor=#6c8ebf;" vertex="1" parent="1">
          <mxGeometry x="440" y="540" width="120" height="60" as="geometry" />
        </mxCell>
        <mxCell id="ibShv_OJYC_zXzg6t3L3-24" value="" style="endArrow=classic;html=1;rounded=0;entryX=0;entryY=0.5;entryDx=0;entryDy=0;exitX=0.685;exitY=-0.012;exitDx=0;exitDy=0;exitPerimeter=0;" edge="1" parent="1" source="ibShv_OJYC_zXzg6t3L3-5" target="ibShv_OJYC_zXzg6t3L3-17">
          <mxGeometry width="50" height="50" relative="1" as="geometry">
            <mxPoint x="390" y="380" as="sourcePoint" />
            <mxPoint x="440" y="330" as="targetPoint" />
          </mxGeometry>
        </mxCell>
        <mxCell id="ibShv_OJYC_zXzg6t3L3-27" value="" style="endArrow=classic;html=1;rounded=0;entryX=0;entryY=0.75;entryDx=0;entryDy=0;exitX=1;exitY=0;exitDx=0;exitDy=0;" edge="1" parent="1" source="ibShv_OJYC_zXzg6t3L3-5" target="ibShv_OJYC_zXzg6t3L3-16">
          <mxGeometry width="50" height="50" relative="1" as="geometry">
            <mxPoint x="550" y="549" as="sourcePoint" />
            <mxPoint x="645" y="350" as="targetPoint" />
          </mxGeometry>
        </mxCell>
        <mxCell id="ibShv_OJYC_zXzg6t3L3-28" value="" style="endArrow=classic;html=1;rounded=0;exitX=0.965;exitY=0.328;exitDx=0;exitDy=0;exitPerimeter=0;entryX=0;entryY=0.5;entryDx=0;entryDy=0;" edge="1" parent="1" source="ibShv_OJYC_zXzg6t3L3-5" target="ibShv_OJYC_zXzg6t3L3-15">
          <mxGeometry width="50" height="50" relative="1" as="geometry">
            <mxPoint x="600" y="419" as="sourcePoint" />
            <mxPoint x="690" y="220" as="targetPoint" />
          </mxGeometry>
        </mxCell>
        <mxCell id="ibShv_OJYC_zXzg6t3L3-29" value="" style="endArrow=classic;html=1;rounded=0;entryX=0;entryY=0.5;entryDx=0;entryDy=0;exitX=1;exitY=0.5;exitDx=0;exitDy=0;" edge="1" parent="1" source="ibShv_OJYC_zXzg6t3L3-5" target="ibShv_OJYC_zXzg6t3L3-14">
          <mxGeometry width="50" height="50" relative="1" as="geometry">
            <mxPoint x="570" y="679" as="sourcePoint" />
            <mxPoint x="665" y="480" as="targetPoint" />
          </mxGeometry>
        </mxCell>
        <mxCell id="ibShv_OJYC_zXzg6t3L3-30" value="" style="endArrow=classic;html=1;rounded=0;entryX=0;entryY=0.5;entryDx=0;entryDy=0;" edge="1" parent="1" target="ibShv_OJYC_zXzg6t3L3-13">
          <mxGeometry width="50" height="50" relative="1" as="geometry">
            <mxPoint x="540" y="400" as="sourcePoint" />
            <mxPoint x="675" y="400" as="targetPoint" />
          </mxGeometry>
        </mxCell>
        <mxCell id="ibShv_OJYC_zXzg6t3L3-31" value="" style="endArrow=classic;html=1;rounded=0;entryX=0;entryY=0.75;entryDx=0;entryDy=0;exitX=0.955;exitY=0.778;exitDx=0;exitDy=0;exitPerimeter=0;" edge="1" parent="1" source="ibShv_OJYC_zXzg6t3L3-5" target="ibShv_OJYC_zXzg6t3L3-12">
          <mxGeometry width="50" height="50" relative="1" as="geometry">
            <mxPoint x="540" y="649" as="sourcePoint" />
            <mxPoint x="635" y="450" as="targetPoint" />
          </mxGeometry>
        </mxCell>
        <mxCell id="ibShv_OJYC_zXzg6t3L3-32" value="" style="endArrow=classic;html=1;rounded=0;entryX=0;entryY=0.5;entryDx=0;entryDy=0;" edge="1" parent="1" source="ibShv_OJYC_zXzg6t3L3-5" target="ibShv_OJYC_zXzg6t3L3-11">
          <mxGeometry width="50" height="50" relative="1" as="geometry">
            <mxPoint x="550" y="709" as="sourcePoint" />
            <mxPoint x="645" y="510" as="targetPoint" />
          </mxGeometry>
        </mxCell>
        <mxCell id="ibShv_OJYC_zXzg6t3L3-33" value="" style="endArrow=classic;html=1;rounded=0;entryX=0.583;entryY=0.057;entryDx=0;entryDy=0;exitX=0;exitY=1;exitDx=0;exitDy=0;entryPerimeter=0;" edge="1" parent="1" source="ibShv_OJYC_zXzg6t3L3-5" target="ibShv_OJYC_zXzg6t3L3-21">
          <mxGeometry width="50" height="50" relative="1" as="geometry">
            <mxPoint x="380" y="819" as="sourcePoint" />
            <mxPoint x="475" y="620" as="targetPoint" />
          </mxGeometry>
        </mxCell>
        <mxCell id="ibShv_OJYC_zXzg6t3L3-34" value="" style="endArrow=classic;html=1;rounded=0;entryX=0.56;entryY=-0.01;entryDx=0;entryDy=0;exitX=0;exitY=0.5;exitDx=0;exitDy=0;entryPerimeter=0;" edge="1" parent="1" source="ibShv_OJYC_zXzg6t3L3-5" target="ibShv_OJYC_zXzg6t3L3-20">
          <mxGeometry width="50" height="50" relative="1" as="geometry">
            <mxPoint x="420" y="889" as="sourcePoint" />
            <mxPoint x="515" y="690" as="targetPoint" />
          </mxGeometry>
        </mxCell>
        <mxCell id="ibShv_OJYC_zXzg6t3L3-35" value="" style="endArrow=classic;html=1;rounded=0;entryX=0.5;entryY=0;entryDx=0;entryDy=0;exitX=0.5;exitY=1;exitDx=0;exitDy=0;" edge="1" parent="1" source="ibShv_OJYC_zXzg6t3L3-5" target="ibShv_OJYC_zXzg6t3L3-22">
          <mxGeometry width="50" height="50" relative="1" as="geometry">
            <mxPoint x="440" y="899" as="sourcePoint" />
            <mxPoint x="535" y="700" as="targetPoint" />
          </mxGeometry>
        </mxCell>
        <mxCell id="ibShv_OJYC_zXzg6t3L3-36" value="" style="endArrow=classic;html=1;rounded=0;entryX=0.5;entryY=0;entryDx=0;entryDy=0;exitX=0.5;exitY=1;exitDx=0;exitDy=0;" edge="1" parent="1" source="ibShv_OJYC_zXzg6t3L3-2" target="ibShv_OJYC_zXzg6t3L3-10">
          <mxGeometry width="50" height="50" relative="1" as="geometry">
            <mxPoint x="40" y="469" as="sourcePoint" />
            <mxPoint x="135" y="270" as="targetPoint" />
          </mxGeometry>
        </mxCell>
        <mxCell id="ibShv_OJYC_zXzg6t3L3-37" value="" style="endArrow=classic;html=1;rounded=0;exitX=0.5;exitY=1;exitDx=0;exitDy=0;" edge="1" parent="1" source="ibShv_OJYC_zXzg6t3L3-10" target="ibShv_OJYC_zXzg6t3L3-9">
          <mxGeometry width="50" height="50" relative="1" as="geometry">
            <mxPoint x="160" y="569" as="sourcePoint" />
            <mxPoint x="255" y="370" as="targetPoint" />
          </mxGeometry>
        </mxCell>
        <mxCell id="ibShv_OJYC_zXzg6t3L3-38" value="" style="endArrow=classic;html=1;rounded=0;entryX=0.5;entryY=0;entryDx=0;entryDy=0;exitX=0.5;exitY=1;exitDx=0;exitDy=0;" edge="1" parent="1" source="ibShv_OJYC_zXzg6t3L3-8" target="ibShv_OJYC_zXzg6t3L3-6">
          <mxGeometry width="50" height="50" relative="1" as="geometry">
            <mxPoint x="310" y="479" as="sourcePoint" />
            <mxPoint x="405" y="280" as="targetPoint" />
          </mxGeometry>
        </mxCell>
        <mxCell id="ibShv_OJYC_zXzg6t3L3-39" value="" style="endArrow=classic;html=1;rounded=0;entryX=0;entryY=0.5;entryDx=0;entryDy=0;exitX=0.945;exitY=0.167;exitDx=0;exitDy=0;exitPerimeter=0;" edge="1" parent="1" source="ibShv_OJYC_zXzg6t3L3-6" target="ibShv_OJYC_zXzg6t3L3-7">
          <mxGeometry width="50" height="50" relative="1" as="geometry">
            <mxPoint x="330" y="479" as="sourcePoint" />
            <mxPoint x="425" y="280" as="targetPoint" />
          </mxGeometry>
        </mxCell>
        <mxCell id="ibShv_OJYC_zXzg6t3L3-40" value="" style="endArrow=classic;html=1;rounded=0;entryX=0.5;entryY=0;entryDx=0;entryDy=0;" edge="1" parent="1" source="ibShv_OJYC_zXzg6t3L3-7" target="ibShv_OJYC_zXzg6t3L3-5">
          <mxGeometry width="50" height="50" relative="1" as="geometry">
            <mxPoint x="500" y="269" as="sourcePoint" />
            <mxPoint x="500" y="340" as="targetPoint" />
          </mxGeometry>
        </mxCell>
        <mxCell id="ibShv_OJYC_zXzg6t3L3-42" value="" style="endArrow=classic;html=1;rounded=0;exitX=1;exitY=0.5;exitDx=0;exitDy=0;entryX=0;entryY=0.5;entryDx=0;entryDy=0;" edge="1" parent="1" source="ibShv_OJYC_zXzg6t3L3-2" target="ibShv_OJYC_zXzg6t3L3-8">
          <mxGeometry width="50" height="50" relative="1" as="geometry">
            <mxPoint x="240" y="389" as="sourcePoint" />
            <mxPoint x="290" y="200" as="targetPoint" />
          </mxGeometry>
        </mxCell>
      </root>
    </mxGraphModel>
  </diagram>
  <diagram id="AAYyguOkWdPEjO4jFga0" name="Page-3">
    <mxGraphModel dx="1389" dy="680" grid="1" gridSize="10" guides="1" tooltips="1" connect="1" arrows="1" fold="1" page="1" pageScale="1" pageWidth="827" pageHeight="1169" math="0" shadow="0">
      <root>
        <mxCell id="0" />
        <mxCell id="1" parent="0" />
        <mxCell id="3x3DX69ZV8FXmRwYmmO0-1" value="&lt;font style=&quot;font-size: 17px;&quot;&gt;Start&lt;/font&gt;" style="ellipse;whiteSpace=wrap;html=1;fillColor=#fff2cc;gradientColor=#ffd966;strokeColor=#d6b656;" vertex="1" parent="1">
          <mxGeometry x="130" y="30" width="150" height="70" as="geometry" />
        </mxCell>
        <mxCell id="3x3DX69ZV8FXmRwYmmO0-2" value="&lt;font style=&quot;font-size: 17px;&quot;&gt;End&lt;/font&gt;" style="ellipse;whiteSpace=wrap;html=1;fillColor=#fff2cc;gradientColor=#ffd966;strokeColor=#d6b656;" vertex="1" parent="1">
          <mxGeometry x="130" y="670" width="150" height="70" as="geometry" />
        </mxCell>
        <mxCell id="3x3DX69ZV8FXmRwYmmO0-3" value="&lt;font style=&quot;font-size: 17px;&quot;&gt;New&amp;nbsp;&lt;/font&gt;&lt;div&gt;&lt;font style=&quot;font-size: 17px;&quot;&gt;User?&lt;/font&gt;&lt;/div&gt;" style="rhombus;whiteSpace=wrap;html=1;fillColor=#d5e8d4;gradientColor=#97d077;strokeColor=#82b366;" vertex="1" parent="1">
          <mxGeometry x="145" y="158" width="120" height="90" as="geometry" />
        </mxCell>
        <mxCell id="3x3DX69ZV8FXmRwYmmO0-17" value="" style="edgeStyle=orthogonalEdgeStyle;rounded=0;orthogonalLoop=1;jettySize=auto;html=1;" edge="1" parent="1" source="3x3DX69ZV8FXmRwYmmO0-4" target="3x3DX69ZV8FXmRwYmmO0-6">
          <mxGeometry relative="1" as="geometry" />
        </mxCell>
        <mxCell id="3x3DX69ZV8FXmRwYmmO0-19" style="edgeStyle=orthogonalEdgeStyle;rounded=0;orthogonalLoop=1;jettySize=auto;html=1;entryX=0.5;entryY=0;entryDx=0;entryDy=0;" edge="1" parent="1" source="3x3DX69ZV8FXmRwYmmO0-4" target="3x3DX69ZV8FXmRwYmmO0-8">
          <mxGeometry relative="1" as="geometry">
            <mxPoint x="710" y="-150" as="targetPoint" />
            <Array as="points">
              <mxPoint x="760" y="445" />
              <mxPoint x="760" y="120" />
              <mxPoint x="480" y="120" />
            </Array>
          </mxGeometry>
        </mxCell>
        <mxCell id="3x3DX69ZV8FXmRwYmmO0-4" value="&lt;font style=&quot;font-size: 14px;&quot;&gt;Face&amp;nbsp;&lt;/font&gt;&lt;div&gt;&lt;font style=&quot;font-size: 14px;&quot;&gt;Recognized&lt;/font&gt;&lt;/div&gt;" style="rhombus;whiteSpace=wrap;html=1;fillColor=#d5e8d4;gradientColor=#97d077;strokeColor=#82b366;" vertex="1" parent="1">
          <mxGeometry x="145" y="400" width="120" height="90" as="geometry" />
        </mxCell>
        <mxCell id="3x3DX69ZV8FXmRwYmmO0-5" value="&lt;font style=&quot;font-size: 17px;&quot;&gt;Recognize the&lt;/font&gt;&lt;div&gt;&lt;font style=&quot;font-size: 17px;&quot;&gt;face&lt;/font&gt;&lt;/div&gt;" style="shape=parallelogram;perimeter=parallelogramPerimeter;whiteSpace=wrap;html=1;fixedSize=1;fillColor=#dae8fc;gradientColor=#7ea6e0;strokeColor=#6c8ebf;" vertex="1" parent="1">
          <mxGeometry x="115" y="290" width="180" height="60" as="geometry" />
        </mxCell>
        <mxCell id="3x3DX69ZV8FXmRwYmmO0-18" value="" style="edgeStyle=orthogonalEdgeStyle;rounded=0;orthogonalLoop=1;jettySize=auto;html=1;" edge="1" parent="1" source="3x3DX69ZV8FXmRwYmmO0-6" target="3x3DX69ZV8FXmRwYmmO0-2">
          <mxGeometry relative="1" as="geometry" />
        </mxCell>
        <mxCell id="3x3DX69ZV8FXmRwYmmO0-6" value="Stored in csv file&lt;div&gt;with registration number&lt;/div&gt;&lt;div&gt;&amp;amp;Date,Time of Entry&lt;/div&gt;" style="shape=parallelogram;perimeter=parallelogramPerimeter;whiteSpace=wrap;html=1;fixedSize=1;fillColor=#dae8fc;gradientColor=#7ea6e0;strokeColor=#6c8ebf;" vertex="1" parent="1">
          <mxGeometry x="115" y="560" width="180" height="60" as="geometry" />
        </mxCell>
        <mxCell id="3x3DX69ZV8FXmRwYmmO0-7" value="&lt;font style=&quot;font-size: 14px;&quot;&gt;Store the face data in folder on your name&lt;/font&gt;" style="rounded=0;whiteSpace=wrap;html=1;fillColor=#ffcd28;gradientColor=#ffa500;strokeColor=#d79b00;" vertex="1" parent="1">
          <mxGeometry x="395" y="300" width="170" height="60" as="geometry" />
        </mxCell>
        <mxCell id="3x3DX69ZV8FXmRwYmmO0-8" value="&lt;font style=&quot;font-size: 15px;&quot;&gt;Give your&amp;nbsp;&lt;/font&gt;&lt;div&gt;&lt;font style=&quot;font-size: 15px;&quot;&gt;paragraph&lt;/font&gt;&lt;/div&gt;" style="rounded=0;whiteSpace=wrap;html=1;fillColor=#ffcd28;gradientColor=#ffa500;strokeColor=#d79b00;" vertex="1" parent="1">
          <mxGeometry x="390" y="173" width="180" height="60" as="geometry" />
        </mxCell>
        <mxCell id="3x3DX69ZV8FXmRwYmmO0-11" value="" style="endArrow=classic;html=1;rounded=0;exitX=0.5;exitY=1;exitDx=0;exitDy=0;" edge="1" parent="1" source="3x3DX69ZV8FXmRwYmmO0-3">
          <mxGeometry width="50" height="50" relative="1" as="geometry">
            <mxPoint x="210" y="250" as="sourcePoint" />
            <mxPoint x="205" y="290" as="targetPoint" />
          </mxGeometry>
        </mxCell>
        <mxCell id="3x3DX69ZV8FXmRwYmmO0-14" value="" style="endArrow=classic;html=1;rounded=0;exitX=0.5;exitY=1;exitDx=0;exitDy=0;" edge="1" parent="1" source="3x3DX69ZV8FXmRwYmmO0-5">
          <mxGeometry width="50" height="50" relative="1" as="geometry">
            <mxPoint x="200" y="360" as="sourcePoint" />
            <mxPoint x="205" y="400" as="targetPoint" />
          </mxGeometry>
        </mxCell>
        <mxCell id="3x3DX69ZV8FXmRwYmmO0-16" value="" style="endArrow=classic;html=1;rounded=0;exitX=0.5;exitY=1;exitDx=0;exitDy=0;" edge="1" parent="1" source="3x3DX69ZV8FXmRwYmmO0-1">
          <mxGeometry width="50" height="50" relative="1" as="geometry">
            <mxPoint x="200" y="120" as="sourcePoint" />
            <mxPoint x="205" y="150" as="targetPoint" />
          </mxGeometry>
        </mxCell>
        <mxCell id="3x3DX69ZV8FXmRwYmmO0-22" value="" style="endArrow=classic;html=1;rounded=0;entryX=1;entryY=0.75;entryDx=0;entryDy=0;" edge="1" parent="1" target="3x3DX69ZV8FXmRwYmmO0-5">
          <mxGeometry width="50" height="50" relative="1" as="geometry">
            <mxPoint x="390" y="333" as="sourcePoint" />
            <mxPoint x="320" y="360" as="targetPoint" />
          </mxGeometry>
        </mxCell>
        <mxCell id="3x3DX69ZV8FXmRwYmmO0-23" value="NO" style="text;html=1;align=center;verticalAlign=middle;resizable=0;points=[];autosize=1;strokeColor=none;fillColor=none;" vertex="1" parent="1">
          <mxGeometry x="160" y="238" width="40" height="30" as="geometry" />
        </mxCell>
        <mxCell id="3x3DX69ZV8FXmRwYmmO0-24" value="YES" style="text;html=1;align=center;verticalAlign=middle;resizable=0;points=[];autosize=1;strokeColor=none;fillColor=none;" vertex="1" parent="1">
          <mxGeometry x="145" y="508" width="50" height="30" as="geometry" />
        </mxCell>
        <mxCell id="3x3DX69ZV8FXmRwYmmO0-26" value="NO" style="text;html=1;align=center;verticalAlign=middle;resizable=0;points=[];autosize=1;strokeColor=none;fillColor=none;" vertex="1" parent="1">
          <mxGeometry x="400" y="418" width="40" height="30" as="geometry" />
        </mxCell>
        <mxCell id="3x3DX69ZV8FXmRwYmmO0-27" value="" style="endArrow=none;html=1;rounded=0;entryX=0;entryY=0.5;entryDx=0;entryDy=0;exitX=1;exitY=0.5;exitDx=0;exitDy=0;" edge="1" parent="1" source="3x3DX69ZV8FXmRwYmmO0-3" target="3x3DX69ZV8FXmRwYmmO0-8">
          <mxGeometry width="50" height="50" relative="1" as="geometry">
            <mxPoint x="240" y="420" as="sourcePoint" />
            <mxPoint x="478.79999999999995" y="470.68000000000006" as="targetPoint" />
          </mxGeometry>
        </mxCell>
        <mxCell id="3x3DX69ZV8FXmRwYmmO0-28" value="YES" style="text;html=1;align=center;verticalAlign=middle;resizable=0;points=[];autosize=1;strokeColor=none;fillColor=none;" vertex="1" parent="1">
          <mxGeometry x="325" y="168" width="50" height="30" as="geometry" />
        </mxCell>
        <mxCell id="3x3DX69ZV8FXmRwYmmO0-29" value="" style="endArrow=none;html=1;rounded=0;entryX=0.5;entryY=0;entryDx=0;entryDy=0;exitX=0.5;exitY=1;exitDx=0;exitDy=0;" edge="1" parent="1" source="3x3DX69ZV8FXmRwYmmO0-8" target="3x3DX69ZV8FXmRwYmmO0-7">
          <mxGeometry width="50" height="50" relative="1" as="geometry">
            <mxPoint x="500" y="250" as="sourcePoint" />
            <mxPoint x="625" y="250" as="targetPoint" />
          </mxGeometry>
        </mxCell>
      </root>
    </mxGraphModel>
  </diagram>
</mxfile>
